<svg width="30" height="30" viewBox="0 0 30 30" fill="none" xmlns="http://www.w3.org/2000/svg">
<mask id="mask0" mask-type="alpha" maskUnits="userSpaceOnUse" x="0" y="0" width="30" height="30">
<path fill-rule="evenodd" clip-rule="evenodd" d="M14.8333 0.957031C6.918 0.957031 0.5 7.3737 0.5 15.2904C0.5 23.2064 6.918 29.6237 14.8333 29.6237C22.7493 29.6237 29.1667 23.2064 29.1667 15.2904C29.1667 7.3737 22.7493 0.957031 14.8333 0.957031Z" fill="white"/>
</mask>
<g mask="url(#mask0)">
<path fill-rule="evenodd" clip-rule="evenodd" d="M23.3139 30.8193C23.3139 35.9033 19.5172 40.0259 14.8332 40.0259C10.1492 40.0259 6.35254 35.9033 6.35254 30.8193C6.35254 25.7353 7.10521 21.6133 14.8332 21.6133C22.5612 21.6133 23.3139 25.7353 23.3139 30.8193Z" stroke="#42403E"/>
</g>
<mask id="mask1" mask-type="alpha" maskUnits="userSpaceOnUse" x="0" y="0" width="30" height="30">
<path fill-rule="evenodd" clip-rule="evenodd" d="M14.8333 0.957031C6.918 0.957031 0.5 7.3737 0.5 15.2904C0.5 23.2064 6.918 29.6237 14.8333 29.6237C22.7493 29.6237 29.1667 23.2064 29.1667 15.2904C29.1667 7.3737 22.7493 0.957031 14.8333 0.957031Z" fill="white"/>
</mask>
<g mask="url(#mask1)">
<path fill-rule="evenodd" clip-rule="evenodd" d="M18.9276 14.2883C18.9276 16.809 17.0942 18.8523 14.8336 18.8523C12.5729 18.8523 10.7402 16.809 10.7402 14.2883C10.7402 11.7676 12.5729 9.72363 14.8336 9.72363C17.0942 9.72363 18.9276 11.7676 18.9276 14.2883Z" stroke="#42403E"/>
</g>
</svg>
