<svg width="17" height="20" viewBox="0 0 17 20" fill="none" xmlns="http://www.w3.org/2000/svg">
<path d="M15.9196 3.37957H14.3815V1.76451C14.3815 1.3223 14.0161 0.957031 13.5739 0.957031C13.1317 0.957031 12.7664 1.3223 12.7664 1.76451V3.37957H4.24916V1.76451C4.24916 1.3223 3.88389 0.957031 3.44169 0.957031C2.99948 0.957031 2.6341 1.3223 2.6341 1.76451V3.37957H1.09601C0.769164 3.37957 0.5 3.64873 0.5 3.97558V19.2797C0.5 19.6065 0.769164 19.8757 1.09601 19.8757H15.9003C16.2272 19.8757 16.4963 19.6065 16.4963 19.2797V3.97558C16.5348 3.64873 16.2656 3.37957 15.9196 3.37957ZM1.73051 18.6837V8.10918H15.3236V18.6837H1.73051Z" fill="#454341"/>
<path d="M11.7858 10.0894L7.4215 14.4537L5.24891 12.2811C4.94129 11.9735 4.42213 11.9735 4.11451 12.2811C3.80688 12.5887 3.80688 13.1079 4.11451 13.4155L7.4215 16.7224L12.9202 11.2044C13.2278 10.8968 13.2278 10.3778 12.9202 10.0702C12.6126 9.76253 12.1126 9.76255 11.7858 10.0894Z" fill="#454341"/>
</svg>
