<svg width="39" height="55" viewBox="0 0 39 55" fill="none" xmlns="http://www.w3.org/2000/svg">
<mask id="path-1-outside-1" maskUnits="userSpaceOnUse" x="0" y="0" width="39" height="55" fill="black">
<rect fill="white" width="39" height="55"/>
<path fill-rule="evenodd" clip-rule="evenodd" d="M19.4988 53.142C21.4421 53.142 36.9995 29.1637 36.9995 19.4988C36.9995 9.83573 29.1637 2 19.4988 2C9.83573 2 2 9.83573 2 19.4988C2 29.1637 17.561 53.142 19.4988 53.142ZM19.8825 27.6987C24.1463 27.6987 27.6023 24.2427 27.6023 19.9789C27.6023 15.7169 24.1463 12.2591 19.8825 12.2591C15.6186 12.2591 12.1627 15.7169 12.1627 19.9789C12.1627 24.2427 15.6186 27.6987 19.8825 27.6987Z"/>
</mask>
<path fill-rule="evenodd" clip-rule="evenodd" d="M19.4988 53.142C21.4421 53.142 36.9995 29.1637 36.9995 19.4988C36.9995 9.83573 29.1637 2 19.4988 2C9.83573 2 2 9.83573 2 19.4988C2 29.1637 17.561 53.142 19.4988 53.142ZM19.8825 27.6987C24.1463 27.6987 27.6023 24.2427 27.6023 19.9789C27.6023 15.7169 24.1463 12.2591 19.8825 12.2591C15.6186 12.2591 12.1627 15.7169 12.1627 19.9789C12.1627 24.2427 15.6186 27.6987 19.8825 27.6987Z" fill="#54575A"/>
<path d="M35.4995 19.4988C35.4995 21.602 34.6291 24.6815 33.1517 28.2607C31.695 31.7899 29.7221 35.6332 27.6768 39.1983C25.6321 42.7624 23.5332 46.0167 21.8369 48.3665C20.9857 49.5456 20.2554 50.4698 19.6973 51.0855C19.4148 51.3972 19.2076 51.595 19.074 51.7028C19.0065 51.7572 18.9905 51.7619 19.0193 51.7467C19.0249 51.7437 19.2058 51.642 19.4988 51.642V54.642C19.9133 54.642 20.2422 54.4936 20.4207 54.3992C20.6224 54.2927 20.804 54.1616 20.9572 54.038C21.265 53.7898 21.5913 53.463 21.9202 53.1002C22.5848 52.3668 23.3888 51.3422 24.2693 50.1224C26.0366 47.6742 28.1914 44.3299 30.279 40.6912C32.3659 37.0536 34.4038 33.0902 35.9248 29.4053C37.4252 25.7703 38.4995 22.2281 38.4995 19.4988H35.4995ZM19.4988 3.5C28.3354 3.5 35.4995 10.6643 35.4995 19.4988H38.4995C38.4995 9.0072 29.9921 0.5 19.4988 0.5V3.5ZM3.5 19.4988C3.5 10.6642 10.6642 3.5 19.4988 3.5V0.5C9.0073 0.5 0.5 9.0073 0.5 19.4988H3.5ZM19.4988 51.642C19.7929 51.642 19.9743 51.7443 19.9798 51.7472C20.0087 51.7625 19.9927 51.7578 19.9253 51.7034C19.7918 51.5955 19.5847 51.3977 19.3023 51.0859C18.7446 50.4701 18.0145 49.5458 17.1635 48.3666C15.4675 46.0167 13.3687 42.7624 11.3238 39.1983C9.27835 35.6332 7.30518 31.7898 5.84819 28.2606C4.37057 24.6813 3.5 21.602 3.5 19.4988H0.5C0.5 22.2281 1.57456 25.7704 3.0752 29.4054C4.59645 33.0903 6.63466 37.0537 8.72168 40.6913C10.8093 44.3299 12.964 47.6742 14.7308 50.1222C15.6111 51.342 16.4147 52.3666 17.0788 53.0998C17.4074 53.4626 17.7333 53.7893 18.0406 54.0374C18.1936 54.161 18.375 54.2921 18.5764 54.3987C18.7545 54.493 19.0837 54.642 19.4988 54.642V51.642ZM26.1023 19.9789C26.1023 23.4143 23.3179 26.1987 19.8825 26.1987V29.1987C24.9747 29.1987 29.1023 25.0712 29.1023 19.9789H26.1023ZM19.8825 13.7591C23.3176 13.7591 26.1023 16.5451 26.1023 19.9789H29.1023C29.1023 14.8887 24.975 10.7591 19.8825 10.7591V13.7591ZM13.6627 19.9789C13.6627 16.5451 16.4473 13.7591 19.8825 13.7591V10.7591C14.79 10.7591 10.6627 14.8887 10.6627 19.9789H13.6627ZM19.8825 26.1987C16.4471 26.1987 13.6627 23.4143 13.6627 19.9789H10.6627C10.6627 25.0712 14.7902 29.1987 19.8825 29.1987V26.1987Z" fill="white" mask="url(#path-1-outside-1)"/>
</svg>
