<svg width="28" height="50" viewBox="0 0 28 50" fill="none" xmlns="http://www.w3.org/2000/svg">
<path d="M25.2967 41.5717C24.7909 41.2134 22.8102 40.3073 22.8102 40.3073L22.5784 40.3916C22.5784 40.3916 22.494 40.3916 21.9039 40.223C21.3139 40.0544 20.6607 38.9586 20.176 37.9682C19.6703 36.9777 19.6703 35.2708 19.6703 33.0159C19.6703 30.7611 19.1435 28.6959 18.9117 27.6844C18.6799 26.6518 17.8158 25.6825 17.8158 25.6825V0.5H16.9307V23.8913L16.72 25.6193C16.72 25.6193 16.5725 25.7668 15.9192 27.0944C15.2659 28.422 15.4556 29.876 15.4556 29.876C15.4556 29.876 15.2239 29.855 15.2239 30.0657C15.2239 30.5082 15.4976 32.7209 15.4976 32.7209C15.4976 32.7209 15.4556 32.8263 15.4556 32.9317C15.4556 33.037 15.5609 33.0792 15.5609 33.0792C15.5609 33.0792 15.7927 34.3014 15.8348 34.5754C15.877 34.8493 16.0244 34.7861 16.0244 34.7861L16.4038 37.2938C16.4038 37.2938 16.2984 37.2938 15.7926 37.3149C15.2869 37.3359 15.4133 37.631 15.5609 37.7996C15.7084 37.9682 15.8138 38.516 15.6663 38.7689C15.5399 39.0007 16.1088 38.9375 16.1088 38.9375C15.8348 39.9912 13.8541 40.5391 13.8541 40.5391L13.5379 40.7498C10.8827 41.2766 0.830707 41.4452 0.830707 41.4452C0.472462 43.2997 0.388262 45.407 0.662214 47.8726C2.89597 48.1044 12.2735 48.7576 13.7486 48.9051C13.6854 48.9262 13.8962 49.1159 13.8962 49.1159C14.6338 49.432 16.7411 49.7902 18.6377 49.7902C20.5132 49.7902 22.3675 49.2423 24.0112 48.568C25.0649 48.1254 27.2988 46.9243 27.2988 44.838C27.2988 42.7728 25.8024 41.9088 25.2967 41.5717Z" fill="#42403E"/>
<path d="M17.8789 44.8173C18.0264 41.9935 18.7218 37.821 21.8196 35.6294C24.9173 33.4377 29.5115 35.7558 26.7509 40.2233C24.2643 44.2483 20.5552 44.2483 17.8789 44.8173Z" fill="#FFDD30" stroke="#42403E" stroke-width="0.8" stroke-miterlimit="10"/>
<path d="M17.8786 44.8173C17.7311 41.9935 17.0357 37.821 13.9379 35.6294C10.8402 33.4377 6.24628 35.7558 9.00687 40.2233C9.93409 41.7195 11.0299 42.6678 12.1889 43.3C14.1066 44.3326 16.1927 44.459 17.8786 44.8173Z" fill="#FFDD30" stroke="#42403E" stroke-width="0.8" stroke-miterlimit="10"/>
</svg>
