<svg width="55" height="48" viewBox="0 0 55 48" fill="none" xmlns="http://www.w3.org/2000/svg">
<path fill-rule="evenodd" clip-rule="evenodd" d="M11.0898 17.6522L21.7012 14.7319V4.99835L11.0898 2.07812V17.6522Z" fill="#FFDD30" stroke="#FFDD30" stroke-linejoin="round"/>
<path fill-rule="evenodd" clip-rule="evenodd" d="M49.685 17.3913V2.34277V17.3913Z" fill="#FFDD30"/>
<path d="M49.685 17.3913V2.34277" stroke="#FFDD30" stroke-linejoin="round"/>
<path fill-rule="evenodd" clip-rule="evenodd" d="M21.6953 4.99866C26.924 4.99866 37.1309 1.10547 42.9187 1.10547C50.6372 1.10547 53.5314 4.99866 53.5314 4.99866V14.7323C53.5314 14.7323 51.881 16.9589 47.7401 18.0429C46.0395 18.4881 44.8487 20.0365 44.8487 21.8093V24.7773C44.8487 27.8051 44.4343 30.803 43.6041 33.7132C43.1989 35.1534 41.8972 36.1463 40.4113 36.1463H39.4653C38.4439 36.1463 37.4683 35.6698 36.8415 34.8521C36.2047 34.0437 35.9824 32.9832 36.2344 31.9711C36.8323 29.5765 37.1309 27.1042 37.1309 24.6313V20.9681C37.1309 19.1633 35.9054 17.602 34.1653 17.1839C29.5599 16.0778 24.7689 14.7323 21.6953 14.7323" fill="#FFDD30"/>
<path d="M21.6953 4.99866C26.924 4.99866 37.1309 1.10547 42.9187 1.10547C50.6372 1.10547 53.5314 4.99866 53.5314 4.99866V14.7323C53.5314 14.7323 51.881 16.9589 47.7401 18.0429C46.0395 18.4881 44.8487 20.0365 44.8487 21.8093V24.7773C44.8487 27.8051 44.4343 30.803 43.6041 33.7132C43.1989 35.1534 41.8972 36.1463 40.4113 36.1463H39.4653C38.4439 36.1463 37.4683 35.6698 36.8415 34.8521C36.2047 34.0437 35.9824 32.9832 36.2344 31.9711C36.8323 29.5765 37.1309 27.1042 37.1309 24.6313V20.9681C37.1309 19.1633 35.9054 17.602 34.1653 17.1839C29.5599 16.0778 24.7689 14.7323 21.6953 14.7323" stroke="#FFDD30" stroke-linejoin="round"/>
<path fill-rule="evenodd" clip-rule="evenodd" d="M40.0326 36.146V47.8263V36.146Z" fill="#FFDD30"/>
<path d="M40.0326 36.146V47.8263" stroke="#FFDD30" stroke-linejoin="round"/>
<path fill-rule="evenodd" clip-rule="evenodd" d="M37.1324 22.5195H35.2031V24.4661H37.1324" fill="#FFDD30"/>
<path d="M37.1324 22.5195H35.2031V24.4661H37.1324" stroke="#FFDD30" stroke-linejoin="round"/>
<path fill-rule="evenodd" clip-rule="evenodd" d="M36.6023 30.3064H35.2031V28.3599H36.9101" fill="#FFDD30"/>
<path d="M36.6023 30.3064H35.2031V28.3599H36.9101" stroke="#FFDD30" stroke-linejoin="round"/>
<path fill-rule="evenodd" clip-rule="evenodd" d="M1.44141 5.47503C3.92198 3.81217 4.88697 7.18565 7.22919 5.47503H1.44141Z" fill="#FFDD30"/>
<path d="M1.44141 5.47503C3.92198 3.81217 4.88697 7.18565 7.22919 5.47503" stroke="#FFDD30" stroke-linecap="round" stroke-linejoin="round"/>
<path fill-rule="evenodd" clip-rule="evenodd" d="M1.44141 10.3418C3.92198 8.67879 4.88697 12.0525 7.22919 10.3418H1.44141Z" fill="#FFDD30"/>
<path d="M1.44141 10.3418C3.92198 8.67879 4.88697 12.0525 7.22919 10.3418" stroke="#FFDD30" stroke-linecap="round" stroke-linejoin="round"/>
<path fill-rule="evenodd" clip-rule="evenodd" d="M1.44141 15.2066C3.92198 13.5434 4.88697 16.9175 7.22919 15.2066H1.44141Z" fill="#FFDD30"/>
<path d="M1.44141 15.2066C3.92198 13.5434 4.88697 16.9175 7.22919 15.2066" stroke="#FFDD30" stroke-linecap="round" stroke-linejoin="round"/>
</svg>
