<svg width="44" height="42" viewBox="0 0 44 42" fill="none" xmlns="http://www.w3.org/2000/svg">
<path d="M22.049 0.200684C10.2651 0.200684 0.722656 9.56268 0.722656 21.098C0.722656 32.6333 10.2651 41.9953 22.049 41.9953C33.8542 41.9953 43.418 32.6333 43.418 21.098C43.418 9.56268 33.8542 0.200684 22.049 0.200684ZM22.0703 37.8158C12.6347 37.8158 4.99219 30.3346 4.99219 21.098C4.99219 11.8614 12.6347 4.38015 22.0703 4.38015C31.506 4.38015 39.1485 11.8614 39.1485 21.098C39.1485 30.3346 31.506 37.8158 22.0703 37.8158Z" fill="#FFDD30"/>
<path d="M23.1357 10.6504H19.9336V23.1888L31.1411 29.7714L32.7422 27.2011L23.1357 21.6215V10.6504Z" fill="#FFDD30"/>
</svg>
