<svg width="120" height="50" viewBox="0 0 120 50" fill="none" xmlns="http://www.w3.org/2000/svg">
<path fill-rule="evenodd" clip-rule="evenodd" d="M117.663 14.4092H117.273V15.6621H117.663C118.052 15.6621 118.312 15.5227 118.312 15.1054C118.312 14.6878 118.182 14.4092 117.792 14.4092H117.663ZM118.442 17.3326L117.533 15.9406H117.273V16.3583C117.273 17.0544 117.403 17.1935 117.792 17.1935V17.3326H116.234V17.1935C116.753 17.1935 116.753 17.0544 116.753 16.3583V15.2448C116.753 14.5487 116.624 14.4092 116.234 14.4092V14.2701H117.663C118.182 14.131 118.572 14.5487 118.701 15.1054V15.2448C118.701 15.6621 118.312 16.0798 117.922 16.0798L118.312 16.6368C118.572 17.0544 118.831 17.1935 119.221 17.3326C119.87 16.3583 119.74 15.1054 118.831 14.4092C117.922 13.7134 116.753 13.8525 116.104 14.8269C115.455 15.8015 115.584 17.0544 116.494 17.7503C117.273 18.4464 118.442 18.307 119.091 17.4717C119.221 17.3326 118.442 17.3326 118.442 17.3326ZM120 15.8012C120 17.1932 118.961 18.307 117.663 18.307C116.364 18.307 115.325 17.1932 115.325 15.8012C115.325 14.4092 116.364 13.2958 117.663 13.2958C118.961 13.1567 120 14.2701 120 15.8012ZM97.5329 32.0885C100.78 32.0885 101.429 31.2533 101.429 25.9635V23.3186C101.429 18.0285 100.78 17.1932 97.5329 17.1932V16.0798L104.027 14.8265C104.416 16.0798 104.676 17.3326 104.806 18.5852C105.715 16.358 107.663 14.966 109.87 14.6874C112.598 14.6874 113.766 16.6365 113.766 17.8894C113.896 19.0028 113.247 20.1163 112.078 20.3948H111.818C110.909 20.3948 110.13 19.5596 110.13 18.4461C110.26 17.6108 109.611 16.7756 108.831 16.7756H108.572C107.403 16.7756 104.806 18.7246 104.806 22.9006V25.824C104.806 31.1138 105.325 31.9491 108.702 31.9491V33.0625H97.5329V32.0885ZM90.1308 29.0257V23.7359C85.4554 24.8494 83.3776 26.6593 83.3776 28.8862C83.2478 30.2782 84.1568 31.5311 85.4554 31.5311H85.5855C86.754 31.5315 87.9229 31.1138 90.1308 29.0257ZM79.7412 29.4436C79.7412 24.9888 84.5464 23.0401 90.1308 22.0657C90.1308 18.1676 89.6114 16.6365 86.8841 16.6365C85.4554 16.4974 84.2866 17.6108 84.1568 19.1423C84.1568 20.1163 83.3776 20.9519 82.4686 20.9519C81.5596 20.9519 80.7803 20.1166 80.7803 19.1423C80.7803 16.6365 83.8969 14.966 87.0139 14.966C91.6893 14.966 93.6371 17.0541 93.6371 22.0657V30C93.6371 31.2529 94.0267 32.0882 94.8059 32.0882C95.3253 31.9491 95.7149 31.6702 96.1045 31.2529L96.7537 32.2273C95.9748 33.2017 94.8059 33.7584 93.5073 33.8978C91.8187 34.0369 90.3907 32.6449 90.2606 30.8353C87.9229 33.2017 86.1049 33.8978 84.1568 33.8978C81.9492 34.0369 80.0011 32.3664 79.7412 29.8606V29.4436ZM74.5468 24.4321C74.5468 20.2557 72.7284 16.915 68.9624 16.915C66.625 17.0541 64.6769 18.725 64.0274 21.091V27.7731C64.6769 30.1395 66.625 31.81 68.9624 31.9491C72.8585 31.9491 74.5468 28.6084 74.5468 24.4321ZM60.6509 9.39765C60.6509 4.10787 60.0015 3.27294 56.7548 3.27294V2.15914L64.0274 0.90625V17.8894C65.4558 15.9403 67.6637 14.8265 70.0014 14.8265C74.9364 15.2445 78.7025 19.699 78.3129 24.9888C78.053 29.8609 74.417 33.6193 70.0014 33.8978C67.534 33.8978 65.1963 32.6449 63.7679 30.4177L61.6897 33.8978H60.6509V9.39765ZM41.171 48.097C41.171 46.0088 43.3787 46.0088 44.9371 41.9719L48.7032 32.7843L43.1188 19.8381C42.08 17.4717 41.3008 16.7756 39.8721 16.7756V15.6621H48.4434V16.7756C46.3655 16.7756 45.8461 17.3326 46.8852 19.8381L50.3914 28.1904L53.5084 19.8381C54.4174 17.4717 54.1575 16.7756 52.0797 16.7756V15.6621H58.9627V16.7756C57.4042 16.7756 56.3655 17.4717 55.4562 19.8381L44.6773 47.9575C44.4177 48.9319 43.7683 49.6277 42.8593 49.9062C41.9503 49.9062 41.3008 49.2104 41.1707 48.3752V48.097H41.171ZM22.5998 31.9491C25.8465 31.9491 26.496 31.1138 26.496 25.824V23.3186C26.496 18.0285 25.8465 17.1932 22.5998 17.1932V16.0798L29.0932 14.8265C29.4828 16.0798 29.7427 17.3326 29.8725 18.5852C30.7815 16.358 32.8596 14.966 35.0672 14.6874C37.7943 14.6874 38.9631 16.6365 38.9631 17.8894C39.0932 19.0028 38.4437 20.1163 37.2749 20.2554H37.015C36.106 20.2554 35.3268 19.4205 35.3268 18.3067C35.4566 17.4714 34.8074 16.6365 34.0282 16.6365H33.6385C32.4697 16.7753 29.8725 18.5852 29.8725 22.7615V25.6846C29.8725 30.9744 30.3921 31.8097 33.7686 31.8097V32.9231H22.5998V31.9491ZM14.4185 27.7731V21.091C13.769 18.725 11.8209 17.0541 9.48323 16.915C5.71714 16.915 3.89913 20.2557 3.89913 24.4321C3.89913 28.6084 5.71714 31.9491 9.48323 31.9491C11.8209 31.8097 13.769 30.1395 14.4185 27.7731ZM0.0032704 24.432C-0.126805 19.2817 3.63929 14.966 8.44446 14.8269C10.7822 14.8269 12.9898 15.9406 14.4185 17.8894V9.39765C14.4185 4.10787 13.8988 3.27294 10.5223 3.27294V2.15914L17.9247 0.90625V25.5452C17.9247 30.8353 18.5739 31.6702 21.8209 31.6702V32.7843L15.3275 34.0372C14.9379 33.0626 14.678 31.9491 14.5482 30.8353C13.1195 32.9231 10.9119 34.0372 8.57423 34.0372C3.63929 33.8978 -0.126805 29.5824 0.0032704 24.432Z" fill="#42413D"/>
</svg>
