<svg width="188" height="86" viewBox="0 0 188 86" fill="none" xmlns="http://www.w3.org/2000/svg">
<mask id="mask0" mask-type="alpha" maskUnits="userSpaceOnUse" x="137" y="-21" width="51" height="97">
<rect x="137.531" y="-21" width="50.0366" height="97" fill="white"/>
</mask>
<g mask="url(#mask0)">
<path fill-rule="evenodd" clip-rule="evenodd" d="M171.599 54.662L171.326 54.7551C171.053 54.7551 170.78 54.662 170.507 54.5691C169.779 54.3832 169.051 53.0821 168.506 51.874C167.96 50.6658 167.96 48.7143 167.96 46.0192C167.869 43.8816 167.596 41.7442 167.05 39.6997C166.777 38.8631 166.413 38.0268 165.867 37.2833V0H164.776V35.3316L164.503 37.3761C164.139 37.9337 163.866 38.4912 163.593 39.1421C163.138 40.1644 162.956 41.2795 163.047 42.3946C163.047 42.3946 162.774 42.3946 162.774 42.5805C162.774 43.1381 163.047 45.7404 163.047 45.7404C163.047 45.8332 162.956 45.9261 162.956 46.0192C162.956 46.112 163.047 46.2049 163.047 46.2049L163.32 47.9706C163.411 48.2494 163.502 48.2494 163.502 48.2494L163.957 51.2233H163.229C162.683 51.2233 162.774 51.5952 162.956 51.7811C163.138 52.1527 163.229 52.5243 163.047 52.8962C162.865 53.175 163.593 53.0819 163.593 53.0819C163.32 54.2901 160.955 54.9405 160.955 54.9405L160.591 55.2195C157.498 55.8699 145.944 56.0561 145.944 56.0561C145.489 58.5651 145.398 61.0746 145.762 63.6764C148.309 63.9554 159.226 64.6986 160.864 64.8846C160.773 64.8846 161.046 65.1636 161.046 65.1636C162.774 65.7211 164.685 65.9999 166.504 65.9999C168.688 65.9071 170.78 65.4424 172.691 64.5132C173.873 64.0482 176.511 62.5613 176.511 60.1451C176.784 58.3791 175.875 56.8924 174.51 56.1489C173.964 55.6842 171.599 54.662 171.599 54.662Z" fill="#FFDD30"/>
<mask id="mask1" mask-type="alpha" maskUnits="userSpaceOnUse" x="145" y="0" width="32" height="66">
<path fill-rule="evenodd" clip-rule="evenodd" d="M171.599 54.6618L171.326 54.7549C171.053 54.7549 170.78 54.6618 170.507 54.5689C169.779 54.383 169.051 53.082 168.506 51.8738C167.96 50.6656 167.96 48.7142 167.96 46.019C167.869 43.8814 167.596 41.744 167.05 39.6995C166.777 38.8629 166.413 38.0266 165.867 37.2831V0H164.776V35.3314L164.503 37.376C164.139 37.9335 163.866 38.4911 163.593 39.142C163.138 40.1642 162.956 41.2793 163.047 42.3944C163.047 42.3944 162.774 42.3944 162.774 42.5803C162.774 43.1379 163.047 45.7402 163.047 45.7402C163.047 45.8331 162.956 45.9259 162.956 46.019C162.956 46.1118 163.047 46.2047 163.047 46.2047L163.32 47.9704C163.411 48.2492 163.502 48.2492 163.502 48.2492L163.957 51.2231H163.229C162.683 51.2231 162.774 51.595 162.956 51.7809C163.138 52.1525 163.229 52.5242 163.047 52.896C162.865 53.1748 163.593 53.0817 163.593 53.0817C163.32 54.2899 160.955 54.9403 160.955 54.9403L160.591 55.2193C157.498 55.8697 145.944 56.0559 145.944 56.0559C145.489 58.5649 145.398 61.0744 145.762 63.6762C148.309 63.9552 159.226 64.6984 160.864 64.8844C160.773 64.8844 161.046 65.1634 161.046 65.1634C162.774 65.7209 164.685 65.9997 166.504 65.9997C168.688 65.9069 170.78 65.4422 172.691 64.513C173.873 64.048 176.511 62.5611 176.511 60.1449C176.784 58.3789 175.875 56.8922 174.51 56.1488C173.964 55.684 171.599 54.6618 171.599 54.6618Z" fill="white"/>
</mask>
<g mask="url(#mask1)">
</g>
</g>
<mask id="mask2" mask-type="alpha" maskUnits="userSpaceOnUse" x="0" y="35" width="67" height="51">
<path fill-rule="evenodd" clip-rule="evenodd" d="M0.431641 35.0635H66.0043V86H0.431641V35.0635Z" fill="white"/>
</mask>
<g mask="url(#mask2)">
<path fill-rule="evenodd" clip-rule="evenodd" d="M46.3245 84.2961C46.3245 82.1943 48.7438 82.1943 50.4376 77.9099L54.5511 68.3699L48.3407 54.7887C47.2115 52.3633 46.4052 51.5551 44.7114 51.5551V50.5042H54.309V51.5551C51.8896 51.5551 51.4058 52.121 52.6152 54.7887L56.5678 63.52L60.0356 54.7887C61.0033 52.2824 60.6809 51.5551 58.4225 51.5551V50.5042H66.0044V51.5551C64.3101 51.5551 63.1007 52.2824 62.133 54.7887L50.1959 83.973C49.7922 85.0234 49.0667 85.9938 48.1797 85.9938C47.2115 86.0748 46.4052 85.3475 46.3245 84.377V84.2961ZM25.596 67.4808C29.145 67.4808 29.8706 66.5918 29.8706 61.0946V58.346C29.8706 52.9297 29.145 52.0401 25.596 52.0401V50.9083L32.855 49.5337C33.2581 50.8274 33.581 52.121 33.742 53.4142C34.7905 51.232 37.2103 49.5337 39.3879 49.5337C42.3723 49.5337 43.663 51.5551 43.663 52.9292C43.663 54.1419 43.1786 55.5164 41.4848 55.5164C40.4364 55.5164 39.6301 54.6269 39.6301 53.576C39.7108 52.6869 39.0655 51.8783 38.1785 51.7974H37.8556C36.565 51.7974 33.6618 53.8187 33.6618 58.1841V61.1755C33.6618 66.5913 34.3071 67.5618 37.9363 67.5618V68.6936H25.5153V67.4808H25.596ZM16.4819 63.1159V56.0823C15.5141 53.4951 13.4172 51.7979 10.9974 51.7979C6.8036 51.7979 4.78741 55.1928 4.78741 59.5587C4.78741 63.9241 6.72287 67.3999 10.9974 67.3999C13.498 67.4004 15.5141 65.6218 16.4819 63.1159ZM0.431641 59.5587C0.431641 54.061 4.70669 49.6147 9.86825 49.6147C12.4495 49.6147 14.8693 50.8274 16.4819 52.8487V43.9561C16.4819 38.5393 15.8371 37.5693 12.2073 37.5693V36.4375L20.3538 35.0635V60.69C20.3538 66.1063 21.0794 67.0768 24.6284 67.0768V68.2086L17.4496 69.5826C17.0465 68.5322 16.8048 67.4004 16.5626 66.2681C14.9496 68.3699 12.5298 69.5826 9.86825 69.5826C4.70669 69.5826 0.431641 65.0559 0.431641 59.5587Z" fill="#FFDD30"/>
</g>
<path fill-rule="evenodd" clip-rule="evenodd" d="M134.005 49.7044H133.516V51.0562H134.005C134.413 51.0562 134.658 50.7183 134.658 50.38C134.658 50.0422 134.331 49.7044 134.005 49.7044ZM134.819 52.8308L133.76 51.3945H133.516V51.8169C133.516 52.5776 133.597 52.7468 134.086 52.7468V52.9154H132.375V52.8308C132.864 52.8308 133.027 52.6622 133.027 51.9015V50.6338C133.027 49.8736 132.946 49.7044 132.375 49.7044V49.5352H134.005C134.738 49.5352 135.146 49.9581 135.146 50.5492C135.146 51.0562 134.738 51.4791 134.249 51.4791L134.738 52.0706C134.982 52.4084 135.39 52.7468 135.797 52.8308C136.612 51.7323 136.449 50.1268 135.39 49.2815C134.33 48.4367 132.782 48.6053 131.967 49.7044C131.153 50.8029 131.316 52.4084 132.375 53.2537C132.782 53.5916 133.353 53.8453 133.923 53.8453C134.575 53.8453 135.227 53.5916 135.716 53.0846L134.819 52.8308ZM136.531 51.1407C136.531 52.6622 135.309 53.9299 133.842 53.9299C132.375 53.9299 131.153 52.6622 131.153 51.1407C131.153 49.6198 132.375 48.3521 133.842 48.3521C135.39 48.3521 136.531 49.6198 136.531 51.1407ZM111.271 68.887C114.857 68.887 115.59 67.9581 115.59 62.2112V59.338C115.59 53.6761 114.857 52.7463 111.271 52.7463V51.5631L118.523 50.1268C118.93 51.4786 119.256 52.8308 119.42 54.1831C120.479 51.9015 123.005 50.1268 125.204 50.1268C128.219 50.1268 129.523 52.2393 129.523 53.6761C129.523 54.9438 129.034 56.3802 127.323 56.3802C126.264 56.3802 125.368 55.4503 125.368 54.3518C125.449 53.4224 124.797 52.5771 123.901 52.4925H123.575C122.271 52.4925 119.338 54.6055 119.338 59.1688V62.2958C119.338 67.9576 119.99 68.9716 123.656 68.9716V70.1547H111.109L111.271 68.887ZM103.042 65.5919V59.7604C97.8266 61.0281 95.4635 62.8873 95.4635 65.4227C95.382 66.9437 96.4412 68.2114 97.8266 68.296H97.9897C99.2121 68.296 100.516 67.8736 103.042 65.5919ZM91.3083 66.0989C91.3083 61.2818 96.7674 59.1693 102.96 57.9862C102.96 53.7607 102.39 51.986 99.2931 51.986C98.0713 51.986 96.197 52.9154 96.197 54.6901C96.2786 55.7891 95.4636 56.7185 94.4044 56.8031C93.3451 56.8872 92.449 56.0424 92.3675 54.9438V54.6901C92.3675 51.986 95.7898 50.1268 99.3752 50.1268C104.671 50.1268 106.871 52.493 106.871 57.9016V66.5213C106.871 67.9576 107.278 68.7183 108.175 68.7183C108.745 68.6338 109.316 68.296 109.723 67.8736L110.457 68.9716C109.56 70.0706 108.257 70.6617 106.871 70.7463C104.997 70.9154 103.286 69.3945 103.123 67.4506C100.434 69.986 98.4786 70.8308 96.2786 70.8308C93.5898 70.8308 91.3083 69.0562 91.3083 66.0989ZM85.4413 60.6057C85.4413 56.0424 83.486 52.493 79.1672 52.493C76.6415 52.493 74.6041 54.2677 73.6265 56.9718V64.2396C74.6041 66.9437 76.6415 68.8029 79.1672 68.8029C83.486 68.8029 85.4413 65.169 85.4413 60.6057ZM69.7969 44.2958C69.7969 38.6339 69.0634 37.6195 65.4785 37.6195V36.4364L73.708 35V53.507C75.3376 51.3945 77.7822 50.1268 80.3895 50.1268C85.6045 50.1268 89.9229 54.7747 89.9229 60.5211C89.9229 66.2675 85.6045 71 80.3895 71C77.6191 71 74.9303 69.5637 73.3823 67.1974L70.9377 71H69.7969V44.2958Z" fill="#C6C8C8"/>
</svg>
