<svg width="51" height="20" viewBox="0 0 51 20" fill="none" xmlns="http://www.w3.org/2000/svg">
<path fill-rule="evenodd" clip-rule="evenodd" d="M49.2409 5.73585H49.0786V6.22166H49.2409C49.4031 6.22166 49.5114 6.1676 49.5114 6.00579C49.5114 5.84385 49.4573 5.73585 49.295 5.73585H49.2409ZM49.5656 6.86942L49.1867 6.32967H49.0786V6.4916C49.0786 6.76154 49.1327 6.81548 49.295 6.81548V6.86942H48.6456V6.81548C48.862 6.81548 48.862 6.76154 48.862 6.4916V6.05985C48.862 5.78991 48.808 5.73585 48.6456 5.73585V5.68191H49.2409C49.4573 5.62797 49.6197 5.78991 49.6738 6.00579V6.05985C49.6738 6.22166 49.5114 6.3836 49.3492 6.3836L49.5114 6.59961C49.6197 6.76154 49.7278 6.81548 49.8903 6.86942C50.1608 6.4916 50.1067 6.00579 49.7278 5.73585C49.3492 5.46603 48.862 5.51997 48.5916 5.89779C48.3211 6.27573 48.375 6.76154 48.7539 7.03136C49.0786 7.3013 49.5656 7.24723 49.8361 6.92336C49.8903 6.86942 49.5656 6.86942 49.5656 6.86942ZM50.2148 6.2756C50.2148 6.81535 49.782 7.24723 49.2409 7.24723C48.6997 7.24723 48.2669 6.81535 48.2669 6.2756C48.2669 5.73585 48.6997 5.3041 49.2409 5.3041C49.782 5.25016 50.2148 5.68191 50.2148 6.2756ZM40.8536 12.5911C42.2065 12.5911 42.477 12.2672 42.477 10.2161V9.1905C42.477 7.13923 42.2065 6.81535 40.8536 6.81535V6.3836L43.5593 5.89766C43.7215 6.3836 43.8298 6.86942 43.884 7.35511C44.2626 6.49148 45.0743 5.95172 45.9941 5.84372C47.1305 5.84372 47.6175 6.59948 47.6175 7.08529C47.6716 7.51705 47.4011 7.9488 46.9141 8.0568H46.8058C46.4271 8.0568 46.1024 7.73292 46.1024 7.30117C46.1566 6.97729 45.886 6.65342 45.5613 6.65342H45.4532C44.966 6.65342 43.884 7.40917 43.884 9.02843V10.162C43.884 12.2131 44.1004 12.537 45.5072 12.537V12.9688H40.8536V12.5911ZM37.7694 11.4034V9.35231C35.8213 9.78406 34.9555 10.4859 34.9555 11.3494C34.9014 11.8891 35.2802 12.375 35.8213 12.375H35.8755C36.3624 12.3751 36.8494 12.2131 37.7694 11.4034ZM33.4404 11.5655C33.4404 9.83812 35.4425 9.0825 37.7694 8.70468C37.7694 7.19317 37.5529 6.59948 36.4166 6.59948C35.8213 6.54554 35.3342 6.97729 35.2802 7.57111C35.2802 7.9488 34.9555 8.2728 34.5767 8.2728C34.198 8.2728 33.8733 7.94893 33.8733 7.57111C33.8733 6.59948 35.1719 5.95172 36.4706 5.95172C38.4187 5.95172 39.2303 6.76142 39.2303 8.70468V11.7813C39.2303 12.2671 39.3926 12.591 39.7173 12.591C39.9337 12.537 40.0961 12.4289 40.2584 12.2671L40.5289 12.6449C40.2043 13.0227 39.7173 13.2386 39.1762 13.2926C38.4727 13.3466 37.8776 12.8068 37.8234 12.1051C36.8494 13.0227 36.0919 13.2926 35.2802 13.2926C34.3603 13.3466 33.5486 12.6988 33.4404 11.7272V11.5655ZM31.276 9.62225C31.276 8.00286 30.5184 6.70748 28.9492 6.70748C27.9752 6.76142 27.1635 7.4093 26.8929 8.32674V10.9178C27.1635 11.8353 27.9752 12.4831 28.9492 12.537C30.5726 12.537 31.276 11.2416 31.276 9.62225ZM25.4861 3.79258C25.4861 1.74145 25.2155 1.41769 23.8627 1.41769V0.985816L26.8929 0.5V7.08529C27.4881 6.32954 28.4081 5.89766 29.3821 5.89766C31.4383 6.05972 33.0075 7.78699 32.8452 9.83813C32.7369 11.7273 31.2219 13.1846 29.3821 13.2926C28.354 13.2926 27.38 12.8068 26.7848 11.9432L25.9189 13.2926H25.4861V3.79258ZM17.3694 18.7984C17.3694 17.9887 18.2893 17.9887 18.9386 16.4234L20.5078 12.8609L18.181 7.84092C17.7482 6.92336 17.4235 6.65342 16.8282 6.65342V6.22166H20.3996V6.65342C19.5338 6.65342 19.3174 6.86942 19.7503 7.84092L21.2113 11.0796L22.51 7.84092C22.8888 6.92336 22.7805 6.65342 21.9147 6.65342V6.22166H24.7826V6.65342C24.1333 6.65342 23.7005 6.92336 23.3216 7.84092L18.8304 18.7444C18.7222 19.1222 18.4516 19.392 18.0729 19.5C17.6941 19.5 17.4235 19.2302 17.3693 18.9063V18.7984H17.3694ZM9.63143 12.537C10.9842 12.537 11.2548 12.2131 11.2548 10.162V9.1905C11.2548 7.13923 10.9842 6.81535 9.63143 6.81535V6.3836L12.337 5.89766C12.4994 6.3836 12.6076 6.86942 12.6617 7.35511C13.0405 6.49148 13.9064 5.95172 14.8262 5.84372C15.9624 5.84372 16.4495 6.59948 16.4495 7.08529C16.5037 7.51705 16.2331 7.9488 15.746 8.00274H15.6378C15.259 8.00274 14.9343 7.67899 14.9343 7.24711C14.9884 6.92323 14.7179 6.59948 14.3932 6.59948H14.2309C13.7439 6.65329 12.6617 7.35511 12.6617 8.97449V10.1079C12.6617 12.1591 12.8782 12.483 14.2851 12.483V12.9147H9.63143V12.537ZM6.22254 10.9178V8.32674C5.95193 7.4093 5.14023 6.76142 4.16619 6.70748C2.59698 6.70748 1.83948 8.00286 1.83948 9.62225C1.83948 11.2416 2.59698 12.537 4.16619 12.537C5.14023 12.483 5.95193 11.8353 6.22254 10.9178ZM0.216206 9.62225C0.162008 7.62517 1.73121 5.95172 3.73337 5.89779C4.70741 5.89779 5.62725 6.32967 6.22254 7.08529V3.79258C6.22254 1.74145 6.006 1.41769 4.59914 1.41769V0.985816L7.68348 0.5V10.0539C7.68348 12.1051 7.95396 12.4289 9.30688 12.4289V12.8609L6.60129 13.3467C6.43895 12.9688 6.33068 12.537 6.27661 12.1051C5.68132 12.9147 4.76148 13.3467 3.78744 13.3467C1.73121 13.2926 0.162008 11.6193 0.216206 9.62225Z" fill="#42413D"/>
</svg>
