<svg width="229" height="20" viewBox="0 0 229 20" fill="none" xmlns="http://www.w3.org/2000/svg">
<path d="M0.997172 19.6836V0.459593H9.20517V3.05159H3.75117V8.69459H8.50317V11.2866H3.75117V16.9296H9.20517V19.6836H0.997172ZM10.9903 19.6836V0.459593H13.6363L17.1733 10.6386H17.2273L20.7373 0.459593H23.4103V19.6836H20.6563V7.99259H20.6023L17.8753 16.2546H16.4983L13.7983 7.99259H13.7443V19.6836H10.9903ZM31.5553 12.9606L30.2053 5.99459H30.1513L28.8013 12.9606H31.5553ZM24.7513 19.6836L29.0443 0.459593H31.3393L35.6323 19.6836H32.8783L32.0683 15.5526H28.3153L27.5053 19.6836H24.7513ZM37.0694 19.6836V0.459593H39.8234V19.6836H37.0694ZM42.4991 19.6836V0.459593H45.2531V16.9296H50.7071V19.6836H42.4991ZM66.8441 0.459593L62.9021 19.6836H60.4721L56.5571 0.459593H59.4731L61.6601 13.8786H61.7141L63.9281 0.459593H66.8441ZM73.0572 12.9606L71.7072 5.99459H71.6532L70.3032 12.9606H73.0572ZM66.2532 19.6836L70.5462 0.459593H72.8412L77.1342 19.6836H74.3802L73.5702 15.5526H69.8172L69.0072 19.6836H66.2532ZM78.4903 19.6836V0.459593H81.2443V16.9296H86.6983V19.6836H78.4903ZM97.3935 0.459593V15.3636C97.3935 15.9936 97.2765 16.5786 97.0425 17.1186C96.8265 17.6406 96.5115 18.1086 96.0975 18.5226C95.6835 18.9366 95.2065 19.2606 94.6665 19.4946C94.1265 19.7286 93.5505 19.8456 92.9385 19.8456C92.3265 19.8456 91.7505 19.7286 91.2105 19.4946C90.6885 19.2606 90.2205 18.9366 89.8065 18.5226C89.3925 18.1086 89.0685 17.6406 88.8345 17.1186C88.6005 16.5786 88.4835 15.9936 88.4835 15.3636V0.459593H91.2375V15.0936C91.2375 15.7776 91.3995 16.2816 91.7235 16.6056C92.0475 16.9296 92.4525 17.0916 92.9385 17.0916C93.4245 17.0916 93.8295 16.9296 94.1535 16.6056C94.4775 16.2816 94.6395 15.7776 94.6395 15.0936V0.459593H97.3935ZM99.9796 19.6836V0.459593H108.188V3.05159H102.734V8.69459H107.486V11.2866H102.734V16.9296H108.188V19.6836H99.9796ZM114.983 19.6836V0.459593H119.114C119.87 0.459593 120.536 0.558593 121.112 0.756593C121.688 0.954592 122.21 1.30559 122.678 1.80959C123.146 2.31359 123.47 2.90759 123.65 3.59159C123.83 4.25759 123.92 5.16659 123.92 6.31859C123.92 7.18259 123.866 7.91159 123.758 8.50559C123.668 9.09959 123.461 9.65759 123.137 10.1796C122.759 10.8096 122.255 11.3046 121.625 11.6646C120.995 12.0066 120.167 12.1776 119.141 12.1776H117.737V19.6836H114.983ZM117.737 3.05159V9.58559H119.06C119.618 9.58559 120.05 9.50459 120.356 9.34259C120.662 9.18059 120.887 8.95559 121.031 8.66759C121.175 8.39759 121.256 8.06459 121.274 7.66859C121.31 7.27259 121.328 6.83159 121.328 6.34559C121.328 5.89559 121.319 5.47259 121.301 5.07659C121.283 4.66259 121.202 4.30259 121.058 3.99659C120.914 3.69059 120.698 3.45659 120.41 3.29459C120.122 3.13259 119.708 3.05159 119.168 3.05159H117.737ZM128.732 3.05159V9.04559H130.298C130.784 9.04559 131.171 8.98259 131.459 8.85659C131.747 8.71259 131.972 8.51459 132.134 8.26259C132.278 8.01059 132.377 7.70459 132.431 7.34459C132.485 6.96659 132.512 6.53459 132.512 6.04859C132.512 5.56259 132.485 5.13959 132.431 4.77959C132.377 4.40159 132.269 4.07759 132.107 3.80759C131.765 3.30359 131.117 3.05159 130.163 3.05159H128.732ZM125.978 19.6836V0.459593H130.406C133.646 0.459593 135.266 2.34059 135.266 6.10259C135.266 7.23659 135.086 8.19959 134.726 8.99159C134.384 9.78359 133.772 10.4226 132.89 10.9086L135.86 19.6836H132.944L130.379 11.4756H128.732V19.6836H125.978ZM137.312 4.99559C137.312 4.22159 137.447 3.53759 137.717 2.94359C137.987 2.34959 138.347 1.85459 138.797 1.45859C139.229 1.08059 139.715 0.792593 140.255 0.594593C140.813 0.396593 141.371 0.297592 141.929 0.297592C142.487 0.297592 143.036 0.396593 143.576 0.594593C144.134 0.792593 144.638 1.08059 145.088 1.45859C145.52 1.85459 145.871 2.34959 146.141 2.94359C146.411 3.53759 146.546 4.22159 146.546 4.99559V15.1476C146.546 15.9576 146.411 16.6506 146.141 17.2266C145.871 17.8026 145.52 18.2796 145.088 18.6576C144.638 19.0536 144.134 19.3506 143.576 19.5486C143.036 19.7466 142.487 19.8456 141.929 19.8456C141.371 19.8456 140.813 19.7466 140.255 19.5486C139.715 19.3506 139.229 19.0536 138.797 18.6576C138.347 18.2796 137.987 17.8026 137.717 17.2266C137.447 16.6506 137.312 15.9576 137.312 15.1476V4.99559ZM140.066 15.1476C140.066 15.8136 140.246 16.3086 140.606 16.6326C140.984 16.9386 141.425 17.0916 141.929 17.0916C142.433 17.0916 142.865 16.9386 143.225 16.6326C143.603 16.3086 143.792 15.8136 143.792 15.1476V4.99559C143.792 4.32959 143.603 3.84359 143.225 3.53759C142.865 3.21359 142.433 3.05159 141.929 3.05159C141.425 3.05159 140.984 3.21359 140.606 3.53759C140.246 3.84359 140.066 4.32959 140.066 4.99559V15.1476ZM148.97 19.6836V0.459593H153.101C153.857 0.459593 154.523 0.558593 155.099 0.756593C155.675 0.954592 156.197 1.30559 156.665 1.80959C157.133 2.31359 157.457 2.90759 157.637 3.59159C157.817 4.25759 157.907 5.16659 157.907 6.31859C157.907 7.18259 157.853 7.91159 157.745 8.50559C157.655 9.09959 157.448 9.65759 157.124 10.1796C156.746 10.8096 156.242 11.3046 155.612 11.6646C154.982 12.0066 154.154 12.1776 153.128 12.1776H151.724V19.6836H148.97ZM151.724 3.05159V9.58559H153.047C153.605 9.58559 154.037 9.50459 154.343 9.34259C154.649 9.18059 154.874 8.95559 155.018 8.66759C155.162 8.39759 155.243 8.06459 155.261 7.66859C155.297 7.27259 155.315 6.83159 155.315 6.34559C155.315 5.89559 155.306 5.47259 155.288 5.07659C155.27 4.66259 155.189 4.30259 155.045 3.99659C154.901 3.69059 154.685 3.45659 154.397 3.29459C154.109 3.13259 153.695 3.05159 153.155 3.05159H151.724ZM164.975 19.6836V0.459593H167.729V8.69459H171.131V0.459593H173.885V19.6836H171.131V11.1246H167.729V19.6836H164.975ZM176.471 19.6836V0.459593H184.679V3.05159H179.225V8.69459H183.977V11.2866H179.225V16.9296H184.679V19.6836H176.471ZM192.026 12.9606L190.676 5.99459H190.622L189.272 12.9606H192.026ZM185.222 19.6836L189.515 0.459593H191.81L196.103 19.6836H193.349L192.539 15.5526H188.786L187.976 19.6836H185.222ZM197.459 19.6836V0.459593H201.536C203.12 0.459593 204.317 0.891593 205.127 1.75559C205.955 2.61959 206.369 3.84359 206.369 5.42759V14.4186C206.369 16.2186 205.928 17.5506 205.046 18.4146C204.182 19.2606 202.931 19.6836 201.293 19.6836H197.459ZM200.213 3.05159V17.0916H201.482C202.256 17.0916 202.805 16.9026 203.129 16.5246C203.453 16.1286 203.615 15.5166 203.615 14.6886V5.42759C203.615 4.67159 203.462 4.08659 203.156 3.67259C202.85 3.25859 202.292 3.05159 201.482 3.05159H200.213ZM208.955 19.6836V0.459593H217.163V3.05159H211.709V8.69459H216.461V11.2866H211.709V16.9296H217.163V19.6836H208.955ZM221.702 3.05159V9.04559H223.268C223.754 9.04559 224.141 8.98259 224.429 8.85659C224.717 8.71259 224.942 8.51459 225.104 8.26259C225.248 8.01059 225.347 7.70459 225.401 7.34459C225.455 6.96659 225.482 6.53459 225.482 6.04859C225.482 5.56259 225.455 5.13959 225.401 4.77959C225.347 4.40159 225.239 4.07759 225.077 3.80759C224.735 3.30359 224.087 3.05159 223.133 3.05159H221.702ZM218.948 19.6836V0.459593H223.376C226.616 0.459593 228.236 2.34059 228.236 6.10259C228.236 7.23659 228.056 8.19959 227.696 8.99159C227.354 9.78359 226.742 10.4226 225.86 10.9086L228.83 19.6836H225.914L223.349 11.4756H221.702V19.6836H218.948Z" fill="#42413D"/>
</svg>
