<svg width="122" height="47" viewBox="0 0 122 47" fill="none" xmlns="http://www.w3.org/2000/svg">
<mask id="mask0" mask-type="alpha" maskUnits="userSpaceOnUse" x="0" y="0" width="59" height="47">
<path fill-rule="evenodd" clip-rule="evenodd" d="M0 0.107422H58.8784V46.2445H0V0.107422Z" fill="white"/>
</mask>
<g mask="url(#mask0)">
<path fill-rule="evenodd" clip-rule="evenodd" d="M41.2077 44.7015C41.2077 42.7978 43.38 42.7978 44.9009 38.917L48.5945 30.2759L43.0181 17.9743C42.0041 15.7774 41.2802 15.0454 39.7593 15.0454V14.0935H48.3771V15.0454C46.2047 15.0454 45.7703 15.5579 46.8562 17.9743L50.4053 25.8829L53.5191 17.9743C54.388 15.7041 54.0985 15.0454 52.0707 15.0454V14.0935H58.8786V15.0454C57.3573 15.0454 56.2713 15.7041 55.4024 17.9743L44.6839 44.4088C44.3215 45.3602 43.67 46.2393 42.8735 46.2393C42.0041 46.3126 41.2802 45.6538 41.2077 44.7748V44.7015ZM22.5954 29.4706C25.7821 29.4706 26.4336 28.6653 26.4336 23.6861V21.1965C26.4336 16.2905 25.7821 15.4848 22.5954 15.4848V14.4596L29.1133 13.2146C29.4753 14.3863 29.7652 15.5581 29.9098 16.7294C30.8512 14.7528 33.024 13.2146 34.9793 13.2146C37.659 13.2146 38.8179 15.0455 38.8179 16.2901C38.8179 17.3885 38.383 18.6335 36.8621 18.6335C35.9207 18.6335 35.1967 17.8278 35.1967 16.8759C35.2692 16.0706 34.6898 15.3382 33.8933 15.2649H33.6034C32.4445 15.2649 29.8377 17.0958 29.8377 21.0499V23.7594C29.8377 28.6649 30.4172 29.5439 33.6759 29.5439V30.5691H22.5229V29.4706H22.5954ZM14.4117 25.5169V19.1461C13.5428 16.8026 11.6599 15.2654 9.48713 15.2654C5.72145 15.2654 3.91109 18.3404 3.91109 22.2948C3.91109 26.2489 5.64896 29.3972 9.48713 29.3972C11.7324 29.3976 13.5428 27.7866 14.4117 25.5169ZM0 22.2947C0 17.315 3.83861 13.2876 8.47323 13.2876C10.791 13.2876 12.9638 14.386 14.4117 16.2169V8.16218C14.4117 3.25577 13.8327 2.37718 10.5735 2.37718V1.35201L17.8883 0.107422V23.3194C17.8883 28.2253 18.5398 29.1044 21.7265 29.1044V30.1295L15.2806 31.3741C14.9186 30.4227 14.7016 29.3975 14.4842 28.3719C13.0358 30.2757 10.863 31.3741 8.47323 31.3741C3.83861 31.3741 0 27.2739 0 22.2947Z" fill="#FFDD30"/>
</g>
<path fill-rule="evenodd" clip-rule="evenodd" d="M119.711 13.3276H119.268V14.5482H119.711C120.08 14.5482 120.302 14.2432 120.302 13.9377C120.302 13.6327 120.007 13.3276 119.711 13.3276ZM120.45 16.1507L119.49 14.8537H119.268V15.2352C119.268 15.9221 119.342 16.0748 119.785 16.0748V16.2271H118.235V16.1507C118.678 16.1507 118.825 15.9984 118.825 15.3115V14.1668C118.825 13.4804 118.751 13.3276 118.235 13.3276V13.1749H119.711C120.376 13.1749 120.745 13.5567 120.745 14.0904C120.745 14.5482 120.376 14.9301 119.933 14.9301L120.376 15.4643C120.597 15.7693 120.966 16.0748 121.336 16.1507C122.074 15.1588 121.926 13.709 120.966 12.9457C120.007 12.1829 118.604 12.3352 117.865 13.3276C117.127 14.3196 117.275 15.7693 118.235 16.5326C118.604 16.8376 119.121 17.0668 119.637 17.0668C120.228 17.0668 120.819 16.8376 121.262 16.3799L120.45 16.1507ZM122 14.6246C122 15.9985 120.893 17.1432 119.564 17.1432C118.235 17.1432 117.127 15.9985 117.127 14.6246C117.127 13.2513 118.235 12.1066 119.564 12.1066C120.966 12.1066 122 13.2513 122 14.6246ZM99.1096 30.6491C102.359 30.6491 103.023 29.8104 103.023 24.621V22.0265C103.023 16.914 102.359 16.0743 99.1096 16.0743V15.006L105.681 13.709C106.05 14.9296 106.346 16.1507 106.494 17.3718C107.454 15.3115 109.743 13.709 111.736 13.709C114.469 13.709 115.65 15.6165 115.65 16.914C115.65 18.0587 115.207 19.3557 113.656 19.3557C112.696 19.3557 111.884 18.516 111.884 17.5241C111.958 16.6849 111.367 15.9216 110.555 15.8452H110.26C109.078 15.8452 106.42 17.7532 106.42 21.8738V24.6974C106.42 29.8099 107.011 30.7255 110.333 30.7255V31.7938H98.9622L99.1096 30.6491ZM91.6518 27.6738V22.408C86.9259 23.5527 84.7844 25.2316 84.7844 27.521C84.7105 28.8944 85.6704 30.0391 86.9259 30.1155H87.0737C88.1814 30.1155 89.363 29.7341 91.6518 27.6738ZM81.0188 28.1314C81.0188 23.7817 85.966 21.8742 91.5779 20.8059C91.5779 16.9904 91.0611 15.3879 88.2549 15.3879C87.1476 15.3879 85.4491 16.2271 85.4491 17.8296C85.5231 18.822 84.7844 19.6612 83.8246 19.7376C82.8647 19.8135 82.0526 19.0506 81.9787 18.0587V17.8296C81.9787 15.3879 85.0801 13.709 88.3292 13.709C93.1286 13.709 95.1223 15.8456 95.1223 20.7295V28.5129C95.1223 29.8098 95.4914 30.4968 96.3039 30.4968C96.8208 30.4204 97.3377 30.1153 97.7067 29.7339L98.3714 30.7254C97.5589 31.7178 96.3778 32.2515 95.1223 32.3279C93.4242 32.4807 91.8736 31.1073 91.7258 29.3521C89.2891 31.6415 87.5167 32.4043 85.5231 32.4043C83.0864 32.4043 81.0188 30.8018 81.0188 28.1314ZM75.7021 23.1713C75.7021 19.0507 73.9302 15.8457 70.0163 15.8457C67.7275 15.8457 65.8812 17.4482 64.9952 19.8899V26.4527C65.8812 28.8944 67.7275 30.5732 70.0163 30.5732C73.9302 30.5732 75.7021 27.2919 75.7021 23.1713ZM61.5247 8.44375C61.5247 3.33119 60.86 2.41514 57.6113 2.41514V1.34681L65.0691 0.0498047V16.7613C66.5459 14.8538 68.7612 13.7091 71.124 13.7091C75.8499 13.7091 79.7633 17.906 79.7633 23.095C79.7633 28.2839 75.8499 32.5573 71.124 32.5573C68.6134 32.5573 66.1768 31.2603 64.7739 29.1236L62.5585 32.5573H61.5247V8.44375Z" fill="#C6C8C8"/>
</svg>
