<svg width="38" height="54" viewBox="0 0 38 54" fill="none" xmlns="http://www.w3.org/2000/svg">
<mask id="path-1-outside-1" maskUnits="userSpaceOnUse" x="0" y="0" width="38" height="54" fill="black">
<rect fill="white" width="38" height="54"/>
<path fill-rule="evenodd" clip-rule="evenodd" d="M19.1318 52.0694C21.0343 52.0694 36.2654 28.594 36.2654 19.1318C36.2654 9.67138 28.594 2 19.1318 2C9.67138 2 2 9.67138 2 19.1318C2 28.594 17.2347 52.0694 19.1318 52.0694ZM19.5073 27.1579C23.6817 27.1579 27.0652 23.7744 27.0652 19.6C27.0652 15.4274 23.6817 12.0422 19.5073 12.0422C15.3329 12.0422 11.9495 15.4274 11.9495 19.6C11.9495 23.7744 15.3329 27.1579 19.5073 27.1579Z"/>
</mask>
<path fill-rule="evenodd" clip-rule="evenodd" d="M19.1318 52.0694C21.0343 52.0694 36.2654 28.594 36.2654 19.1318C36.2654 9.67138 28.594 2 19.1318 2C9.67138 2 2 9.67138 2 19.1318C2 28.594 17.2347 52.0694 19.1318 52.0694ZM19.5073 27.1579C23.6817 27.1579 27.0652 23.7744 27.0652 19.6C27.0652 15.4274 23.6817 12.0422 19.5073 12.0422C15.3329 12.0422 11.9495 15.4274 11.9495 19.6C11.9495 23.7744 15.3329 27.1579 19.5073 27.1579Z" fill="#FFDD30"/>
<path d="M34.7654 19.1318C34.7654 21.1843 33.9154 24.1943 32.4693 27.6978C31.0438 31.1515 29.1129 34.9129 27.1109 38.4025C25.1096 41.891 23.0553 45.076 21.3953 47.3755C20.5623 48.5295 19.8481 49.4333 19.3028 50.0348C19.0267 50.3395 18.8251 50.5318 18.6961 50.6358C18.631 50.6883 18.617 50.6916 18.6476 50.6755C18.6551 50.6715 18.8374 50.5694 19.1318 50.5694V53.5694C19.545 53.5694 19.8723 53.4214 20.0491 53.328C20.2489 53.2224 20.4284 53.0928 20.5794 52.971C20.8825 52.7266 21.2032 52.4053 21.5256 52.0495C22.1775 51.3303 22.9653 50.3261 23.8278 49.1315C25.5587 46.7336 27.6689 43.4585 29.7131 39.8953C31.7567 36.3333 33.7526 32.4517 35.2423 28.8425C36.7115 25.2831 37.7654 21.8103 37.7654 19.1318H34.7654ZM19.1318 3.5C27.7657 3.5 34.7654 10.4999 34.7654 19.1318H37.7654C37.7654 8.84285 29.4223 0.5 19.1318 0.5V3.5ZM3.5 19.1318C3.5 10.4998 10.4998 3.5 19.1318 3.5V0.5C8.84295 0.5 0.5 8.84295 0.5 19.1318H3.5ZM19.1318 50.5694C19.4271 50.5694 19.6101 50.6721 19.6174 50.676C19.6481 50.6922 19.6342 50.6889 19.5691 50.6364C19.4402 50.5323 19.2387 50.3399 18.9627 50.0352C18.4178 49.4335 17.7038 48.5297 16.8709 47.3757C15.2113 45.0761 13.157 41.8909 11.1555 38.4024C9.15341 34.9128 7.22232 31.1514 5.79655 27.6978C4.35017 24.1942 3.5 21.1843 3.5 19.1318H0.5C0.5 21.8104 1.55416 25.2832 3.02356 28.8425C4.51358 32.4518 6.50973 36.3334 8.5534 39.8954C10.5977 43.4585 12.7078 46.7335 14.4383 49.1313C15.3004 50.3259 16.0879 51.33 16.7392 52.0491C17.0614 52.4048 17.3817 52.726 17.6844 52.9704C17.8351 53.0921 18.0144 53.2218 18.214 53.3275C18.3903 53.4208 18.7179 53.5694 19.1318 53.5694V50.5694ZM25.5652 19.6C25.5652 22.946 22.8533 25.6579 19.5073 25.6579V28.6579C24.5102 28.6579 28.5652 24.6029 28.5652 19.6H25.5652ZM19.5073 13.5422C22.8531 13.5422 25.5652 16.2556 25.5652 19.6H28.5652C28.5652 14.5993 24.5104 10.5422 19.5073 10.5422V13.5422ZM13.4495 19.6C13.4495 16.2556 16.1616 13.5422 19.5073 13.5422V10.5422C14.5043 10.5422 10.4495 14.5993 10.4495 19.6H13.4495ZM19.5073 25.6579C16.1614 25.6579 13.4495 22.946 13.4495 19.6H10.4495C10.4495 24.6029 14.5045 28.6579 19.5073 28.6579V25.6579Z" fill="white" mask="url(#path-1-outside-1)"/>
</svg>
