<svg width="18" height="20" viewBox="0 0 18 20" fill="none" xmlns="http://www.w3.org/2000/svg">
<mask id="mask0" mask-type="alpha" maskUnits="userSpaceOnUse" x="0" y="0" width="18" height="20">
<path fill-rule="evenodd" clip-rule="evenodd" d="M0.541016 0.944336H17.8855V19.3765H0.541016V0.944336Z" fill="white"/>
</mask>
<g mask="url(#mask0)">
<path fill-rule="evenodd" clip-rule="evenodd" d="M16.2792 13.8891C16.2419 14.7893 16.0996 15.2754 15.981 15.5995C15.6895 16.4025 15.0897 17.0398 14.3339 17.3495C14.0289 17.4755 13.5681 17.6267 12.7242 17.6663C11.8092 17.7096 11.5347 17.7203 9.22006 17.7203C6.90541 17.7203 6.62754 17.7096 5.71584 17.6663C4.86861 17.6267 4.41111 17.4755 4.10611 17.3495C3.73003 17.2018 3.38769 16.9678 3.10981 16.6617C2.82176 16.3628 2.60146 16.0028 2.46247 15.6032C2.34386 15.2791 2.20154 14.7893 2.16433 13.8928C2.12356 12.9205 2.11351 12.6289 2.11351 10.1695C2.11351 7.71015 2.12356 7.41491 2.16433 6.44636C2.20154 5.54617 2.34386 5.06004 2.46247 4.73601C2.60146 4.33627 2.82176 3.97264 3.11324 3.67729C3.39441 3.37123 3.73332 3.13716 4.10954 2.98963C4.41454 2.8636 4.8755 2.71239 5.71927 2.67271C6.6343 2.62953 6.90884 2.61871 9.22338 2.61871C11.5415 2.61871 11.8159 2.62953 12.7276 2.67271C13.5749 2.71239 14.0323 2.8636 14.3374 2.98963C14.7134 3.13716 15.0558 3.37123 15.3336 3.67729C15.6217 3.97618 15.842 4.33627 15.981 4.73601C16.0996 5.06004 16.2419 5.54967 16.2792 6.44636C16.3199 7.41859 16.3301 7.71015 16.3301 10.1695C16.3301 12.6289 16.3199 12.9169 16.2792 13.8891ZM17.8414 6.36344C17.8008 5.38408 17.6517 4.71075 17.4382 4.12734C17.2179 3.50803 16.879 2.95355 16.435 2.49264C16.0012 2.02455 15.4759 1.66081 14.8998 1.43043C14.3476 1.20354 13.7171 1.04519 12.7954 1.00198C11.8667 0.955157 11.5719 0.944336 9.21663 0.944336C6.86133 0.944336 6.56652 0.955157 5.64131 0.998334C4.71957 1.04151 4.08588 1.20004 3.5369 1.42678C2.95389 1.66081 2.43207 2.02091 1.99827 2.49264C1.55768 2.95355 1.21551 3.51168 0.998544 4.1238C0.785006 4.71075 0.635937 5.3804 0.5953 6.3598C0.5512 7.34648 0.541016 7.65972 0.541016 10.1622C0.541016 12.6648 0.5512 12.978 0.591871 13.961C0.632508 14.9404 0.781679 15.6137 0.995217 16.1971C1.21551 16.8164 1.55768 17.3709 1.99827 17.8318C2.43207 18.2999 2.95736 18.6636 3.53347 18.8941C4.08588 19.1209 4.71614 19.2793 5.63802 19.3225C6.56309 19.3658 6.85804 19.3765 9.21331 19.3765C11.5686 19.3765 11.8635 19.3658 12.7887 19.3225C13.7104 19.2793 14.3441 19.1209 14.8931 18.8941C16.0589 18.4151 16.9807 17.4357 17.4314 16.1971C17.6449 15.6102 17.794 14.9404 17.8346 13.961C17.8753 12.978 17.8855 12.6648 17.8855 10.1622C17.8855 7.65972 17.8821 7.34648 17.8414 6.36344Z" fill="black"/>
</g>
<path fill-rule="evenodd" clip-rule="evenodd" d="M9.49437 13.5436C7.89092 13.5436 6.59033 12.1618 6.59033 10.458C6.59033 8.75421 7.89092 7.37244 9.49437 7.37244C11.0979 7.37244 12.3984 8.75421 12.3984 10.458C12.3984 12.1618 11.0979 13.5436 9.49437 13.5436ZM9.49437 5.70117C7.02286 5.70117 5.01758 7.83173 5.01758 10.458C5.01758 13.0842 7.02286 15.2147 9.49437 15.2147C11.9661 15.2147 13.9712 13.0842 13.9712 10.458C13.9712 7.83173 11.9661 5.70117 9.49437 5.70117Z" fill="black"/>
<path fill-rule="evenodd" clip-rule="evenodd" d="M15.09 5.40355C15.09 5.89604 14.5889 6.29541 13.9707 6.29541C13.3527 6.29541 12.8516 5.89604 12.8516 5.40355C12.8516 4.91094 13.3527 4.51172 13.9707 4.51172C14.5889 4.51172 15.09 4.91094 15.09 5.40355Z" fill="#42413D"/>
</svg>
