<svg width="185" height="71" viewBox="0 0 185 71" fill="none" xmlns="http://www.w3.org/2000/svg">
<mask id="mask0" mask-type="alpha" maskUnits="userSpaceOnUse" x="0" y="19" width="66" height="52">
<path fill-rule="evenodd" clip-rule="evenodd" d="M0.203125 19.4609H65.9496V70.1461H0.203125V19.4609Z" fill="white"/>
</mask>
<g mask="url(#mask0)">
<path fill-rule="evenodd" clip-rule="evenodd" d="M46.2176 68.4526C46.2176 66.3612 48.6434 66.3612 50.3416 62.0978L54.4661 52.6049L48.2392 39.0907C47.107 36.6773 46.2986 35.8731 44.6003 35.8731V34.8274H54.2233V35.8731C51.7976 35.8731 51.3124 36.4362 52.525 39.0907L56.4881 47.779L59.9651 39.0907C60.9354 36.5968 60.6121 35.8731 58.3478 35.8731V34.8274H65.9497V35.8731C64.251 35.8731 63.0384 36.5968 62.0681 39.0907L50.0993 68.131C49.6946 69.1762 48.9671 70.1419 48.0778 70.1419C47.107 70.2224 46.2986 69.4988 46.2176 68.5331V68.4526ZM25.4342 51.7194C28.9926 51.7194 29.7201 50.8348 29.7201 45.3647V42.6296C29.7201 37.24 28.9926 36.3549 25.4342 36.3549V35.2287L32.7124 33.8609C33.1166 35.1481 33.4404 36.4354 33.6018 37.7222C34.653 35.5507 37.0793 33.8609 39.2627 33.8609C42.255 33.8609 43.549 35.8723 43.549 37.2396C43.549 38.4463 43.0634 39.8141 41.3651 39.8141C40.3139 39.8141 39.5055 38.9289 39.5055 37.8832C39.5864 36.9985 38.9394 36.1939 38.0501 36.1133H37.7263C36.4322 36.1133 33.5214 38.1247 33.5214 42.4686V45.4452C33.5214 50.8343 34.1684 51.8 37.8072 51.8V52.9262H25.3533V51.7194H25.4342ZM16.2959 47.377V40.3781C15.3256 37.8036 13.2231 36.1148 10.7969 36.1148C6.59198 36.1148 4.57045 39.4929 4.57045 43.8373C4.57045 48.1812 6.51104 51.6399 10.7969 51.6399C13.3041 51.6404 15.3256 49.8705 16.2959 47.377ZM0.203125 43.8353C0.203125 38.3647 4.4895 33.9403 9.66473 33.9403C12.2528 33.9403 14.6791 35.1471 16.2959 37.1585V28.3097C16.2959 22.9196 15.6494 21.9544 12.01 21.9544V20.8282L20.1781 19.4609V44.961C20.1781 50.3506 20.9055 51.3163 24.4639 51.3163V52.4425L17.2662 53.8098C16.862 52.7646 16.6197 51.6383 16.3768 50.5116C14.7595 52.603 12.3333 53.8098 9.66473 53.8098C4.4895 53.8098 0.203125 49.3054 0.203125 43.8353Z" fill="#FFDD30"/>
</g>
<path fill-rule="evenodd" clip-rule="evenodd" d="M132.346 33.8178H131.86V35.1434H132.346C132.751 35.1434 132.994 34.8122 132.994 34.4804C132.994 34.1491 132.67 33.8178 132.346 33.8178ZM133.156 36.8834L132.103 35.4748H131.86V35.889C131.86 36.635 131.941 36.8009 132.427 36.8009V36.9663H130.726V36.8834C131.212 36.8834 131.374 36.718 131.374 35.972V34.7288C131.374 33.9833 131.293 33.8174 130.726 33.8174V33.6516H132.346C133.075 33.6516 133.48 34.0663 133.48 34.6459C133.48 35.1431 133.075 35.5578 132.589 35.5578L133.075 36.1379C133.318 36.4692 133.723 36.8009 134.128 36.8834C134.938 35.8061 134.776 34.2317 133.723 33.4027C132.67 32.5743 131.131 32.7397 130.321 33.8174C129.511 34.8947 129.673 36.4692 130.726 37.2981C131.131 37.6294 131.698 37.8782 132.265 37.8782C132.913 37.8782 133.561 37.6294 134.047 37.1322L133.156 36.8834ZM134.857 35.226C134.857 36.718 133.642 37.9612 132.184 37.9612C130.726 37.9612 129.511 36.718 129.511 35.226C129.511 33.7345 130.726 32.4914 132.184 32.4914C133.723 32.4914 134.857 33.7345 134.857 35.226ZM109.745 52.6297C113.309 52.6297 114.039 51.7188 114.039 46.0831V43.2655C114.039 37.7133 113.309 36.8014 109.745 36.8014V35.6412L116.954 34.2326C117.359 35.5582 117.684 36.8843 117.846 38.2104C118.899 35.9729 121.41 34.2326 123.597 34.2326C126.594 34.2326 127.891 36.3042 127.891 37.7133C127.891 38.9564 127.405 40.365 125.704 40.365C124.65 40.365 123.759 39.4531 123.759 38.3758C123.84 37.4644 123.192 36.6355 122.301 36.5526H121.977C120.681 36.5526 117.765 38.6247 117.765 43.0997V46.1661C117.765 51.7183 118.413 52.7127 122.058 52.7127V53.8729H109.583L109.745 52.6297ZM101.563 49.3972V43.6785C96.3785 44.9217 94.0292 46.7449 94.0292 49.2313C93.9481 50.7228 95.0012 51.9659 96.3785 52.0489H96.5407C97.7559 52.0489 99.0522 51.6347 101.563 49.3972ZM89.8982 49.8956C89.8982 45.1718 95.3255 43.1002 101.482 41.9399C101.482 37.7962 100.915 36.0559 97.8365 36.0559C96.6218 36.0559 94.7585 36.9673 94.7585 38.7076C94.8396 39.7854 94.0293 40.6968 92.9762 40.7797C91.9232 40.8622 91.0323 40.0337 90.9512 38.9564V38.7076C90.9512 36.0559 94.3536 34.2326 97.9181 34.2326C103.183 34.2326 105.37 36.5531 105.37 41.857V50.3098C105.37 51.7183 105.775 52.4643 106.667 52.4643C107.234 52.3814 107.801 52.0501 108.206 51.6359L108.935 52.7127C108.044 53.7904 106.748 54.3701 105.37 54.453C103.508 54.6189 101.806 53.1274 101.644 51.2212C98.9711 53.7075 97.0267 54.5359 94.8396 54.5359C92.1664 54.5359 89.8982 52.7956 89.8982 49.8956ZM84.0654 44.5086C84.0654 40.0337 82.1215 36.553 77.8277 36.553C75.3167 36.553 73.2912 38.2933 72.3193 40.945V48.0723C73.2912 50.724 75.3167 52.5472 77.8277 52.5472C82.1215 52.5472 84.0654 48.9836 84.0654 44.5086ZM68.512 28.5143C68.512 22.962 67.7828 21.9672 64.2188 21.9672V20.807L72.4003 19.3984V37.5472C74.0204 35.4756 76.4508 34.2324 79.0429 34.2324C84.2275 34.2324 88.5208 38.7904 88.5208 44.4256C88.5208 50.0608 84.2275 54.7017 79.0429 54.7017C76.2887 54.7017 73.6155 53.2931 72.0765 50.9727L69.6461 54.7017H68.512V28.5143Z" fill="#C6C8C8"/>
<rect x="135.961" y="0.643555" width="48.5638" height="60.6774" fill="white"/>
<mask id="mask1" mask-type="alpha" maskUnits="userSpaceOnUse" x="135" y="0" width="50" height="62">
<rect x="135.961" y="0.643555" width="48.5638" height="60.6774" fill="white"/>
</mask>
<g mask="url(#mask1)">
<path fill-rule="evenodd" clip-rule="evenodd" d="M168.544 40.1254L168.272 40.2179C168 40.2179 167.729 40.1254 167.457 40.0331C166.732 39.8483 166.007 38.5554 165.463 37.3546C164.919 36.1539 164.919 34.2146 164.919 31.5361C164.828 29.4117 164.557 27.2875 164.013 25.2557C163.741 24.4243 163.378 23.5931 162.835 22.8542V-68.8584H161.747V20.9146L161.475 22.9465C161.113 23.5006 160.841 24.0547 160.569 24.7016C160.116 25.7175 159.934 26.8257 160.025 27.9339C160.025 27.9339 159.753 27.9339 159.753 28.1187C159.753 28.6728 160.025 31.259 160.025 31.259C160.025 31.3513 159.934 31.4436 159.934 31.5361C159.934 31.6283 160.025 31.7206 160.025 31.7206L160.297 33.4754C160.388 33.7525 160.478 33.7525 160.478 33.7525L160.931 36.708H160.206C159.663 36.708 159.753 37.0776 159.934 37.2624C160.116 37.6317 160.206 38.001 160.025 38.3706C159.844 38.6476 160.569 38.5551 160.569 38.5551C160.297 39.7558 157.941 40.4022 157.941 40.4022L157.578 40.6795C154.497 41.3259 142.987 41.5109 142.987 41.5109C142.534 44.0043 142.443 46.4983 142.806 49.084C145.343 49.3613 156.219 50.1 157.85 50.2848C157.759 50.2848 158.031 50.5621 158.031 50.5621C159.753 51.1162 161.657 51.3932 163.469 51.3932C165.644 51.3009 167.729 50.8391 169.632 49.9157C170.81 49.4536 173.438 47.9758 173.438 45.5747C173.71 43.8196 172.804 42.342 171.444 41.6032C170.901 41.1413 168.544 40.1254 168.544 40.1254Z" fill="#FFDD30"/>
<mask id="mask2" mask-type="alpha" maskUnits="userSpaceOnUse" x="142" y="-69" width="32" height="121">
<path fill-rule="evenodd" clip-rule="evenodd" d="M168.544 40.1254L168.272 40.2179C168 40.2179 167.729 40.1254 167.457 40.0331C166.732 39.8483 166.007 38.5554 165.463 37.3546C164.919 36.1539 164.919 34.2146 164.919 31.5361C164.828 29.4117 164.557 27.2875 164.013 25.2557C163.741 24.4243 163.378 23.5931 162.835 22.8542V-68.8584H161.747V20.9146L161.475 22.9465C161.113 23.5006 160.841 24.0547 160.569 24.7016C160.116 25.7175 159.934 26.8257 160.025 27.9339C160.025 27.9339 159.753 27.9339 159.753 28.1187C159.753 28.6728 160.025 31.259 160.025 31.259C160.025 31.3513 159.934 31.4436 159.934 31.5361C159.934 31.6283 160.025 31.7206 160.025 31.7206L160.297 33.4754C160.388 33.7525 160.478 33.7525 160.478 33.7525L160.931 36.708H160.206C159.663 36.708 159.753 37.0776 159.934 37.2624C160.116 37.6317 160.206 38.001 160.025 38.3706C159.844 38.6476 160.569 38.5551 160.569 38.5551C160.297 39.7558 157.941 40.4022 157.941 40.4022L157.578 40.6795C154.497 41.3259 142.987 41.5109 142.987 41.5109C142.534 44.0043 142.443 46.4983 142.806 49.084C145.343 49.3613 156.219 50.1 157.85 50.2848C157.759 50.2848 158.031 50.5621 158.031 50.5621C159.753 51.1162 161.657 51.3932 163.469 51.3932C165.644 51.3009 167.729 50.8391 169.632 49.9157C170.81 49.4536 173.438 47.9758 173.438 45.5747C173.71 43.8196 172.804 42.342 171.444 41.6032C170.901 41.1413 168.544 40.1254 168.544 40.1254Z" fill="white"/>
</mask>
<g mask="url(#mask2)">
</g>
</g>
</svg>
