<svg width="188" height="107" viewBox="0 0 188 107" fill="none" xmlns="http://www.w3.org/2000/svg">
<mask id="mask0" mask-type="alpha" maskUnits="userSpaceOnUse" x="137" y="0" width="51" height="97">
<rect x="137.531" width="50.0366" height="97" fill="white"/>
</mask>
<g mask="url(#mask0)">
<path fill-rule="evenodd" clip-rule="evenodd" d="M171.599 75.6621L171.326 75.7551C171.053 75.7551 170.78 75.6621 170.507 75.5692C169.779 75.3833 169.051 74.0822 168.506 72.874C167.96 71.6658 167.96 69.7144 167.96 67.0193C167.869 64.8817 167.596 62.7443 167.05 60.6998C166.777 59.8632 166.413 59.0269 165.867 58.2834V-34H164.776V56.3317L164.503 58.3762C164.139 58.9338 163.866 59.4913 163.593 60.1422C163.138 61.1645 162.956 62.2796 163.047 63.3947C163.047 63.3947 162.774 63.3947 162.774 63.5806C162.774 64.1382 163.047 66.7405 163.047 66.7405C163.047 66.8333 162.956 66.9262 162.956 67.0193C162.956 67.1121 163.047 67.2049 163.047 67.2049L163.32 68.9707C163.411 69.2495 163.502 69.2495 163.502 69.2495L163.957 72.2234H163.229C162.683 72.2234 162.774 72.5953 162.956 72.7812C163.138 73.1528 163.229 73.5244 163.047 73.8963C162.865 74.1751 163.593 74.082 163.593 74.082C163.32 75.2902 160.955 75.9406 160.955 75.9406L160.591 76.2196C157.498 76.87 145.944 77.0562 145.944 77.0562C145.489 79.5652 145.398 82.0746 145.762 84.6765C148.309 84.9555 159.226 85.6987 160.864 85.8846C160.773 85.8846 161.046 86.1637 161.046 86.1637C162.774 86.7212 164.685 87 166.504 87C168.688 86.9072 170.78 86.4425 172.691 85.5133C173.873 85.0483 176.511 83.5613 176.511 81.1452C176.784 79.3792 175.875 77.8925 174.51 77.149C173.964 76.6843 171.599 75.6621 171.599 75.6621Z" fill="#FFDD30"/>
<mask id="mask1" mask-type="alpha" maskUnits="userSpaceOnUse" x="145" y="-34" width="32" height="121">
<path fill-rule="evenodd" clip-rule="evenodd" d="M171.599 75.6621L171.326 75.7551C171.053 75.7551 170.78 75.6621 170.507 75.5692C169.779 75.3833 169.051 74.0822 168.506 72.874C167.96 71.6658 167.96 69.7144 167.96 67.0193C167.869 64.8817 167.596 62.7443 167.05 60.6998C166.777 59.8632 166.413 59.0269 165.867 58.2834V-34H164.776V56.3317L164.503 58.3762C164.139 58.9338 163.866 59.4913 163.593 60.1422C163.138 61.1645 162.956 62.2796 163.047 63.3947C163.047 63.3947 162.774 63.3947 162.774 63.5806C162.774 64.1382 163.047 66.7405 163.047 66.7405C163.047 66.8333 162.956 66.9262 162.956 67.0193C162.956 67.1121 163.047 67.2049 163.047 67.2049L163.32 68.9707C163.411 69.2495 163.502 69.2495 163.502 69.2495L163.957 72.2234H163.229C162.683 72.2234 162.774 72.5953 162.956 72.7812C163.138 73.1528 163.229 73.5244 163.047 73.8963C162.865 74.1751 163.593 74.082 163.593 74.082C163.32 75.2902 160.955 75.9406 160.955 75.9406L160.591 76.2196C157.498 76.87 145.944 77.0562 145.944 77.0562C145.489 79.5652 145.398 82.0746 145.762 84.6765C148.309 84.9555 159.226 85.6987 160.864 85.8846C160.773 85.8846 161.046 86.1637 161.046 86.1637C162.774 86.7212 164.685 87 166.504 87C168.688 86.9072 170.78 86.4425 172.691 85.5133C173.873 85.0483 176.511 83.5613 176.511 81.1452C176.784 79.3792 175.875 77.8925 174.51 77.149C173.964 76.6843 171.599 75.6621 171.599 75.6621Z" fill="white"/>
</mask>
<g mask="url(#mask1)">
</g>
</g>
<mask id="mask2" mask-type="alpha" maskUnits="userSpaceOnUse" x="0" y="56" width="67" height="51">
<path fill-rule="evenodd" clip-rule="evenodd" d="M0.431641 56.0635H66.0043V107H0.431641V56.0635Z" fill="white"/>
</mask>
<g mask="url(#mask2)">
<path fill-rule="evenodd" clip-rule="evenodd" d="M46.3245 105.296C46.3245 103.194 48.7438 103.194 50.4376 98.9099L54.5511 89.3699L48.3407 75.7887C47.2115 73.3633 46.4052 72.5551 44.7114 72.5551V71.5042H54.309V72.5551C51.8896 72.5551 51.4058 73.121 52.6152 75.7887L56.5678 84.52L60.0356 75.7887C61.0033 73.2824 60.6809 72.5551 58.4225 72.5551V71.5042H66.0044V72.5551C64.3101 72.5551 63.1007 73.2824 62.133 75.7887L50.1959 104.973C49.7922 106.023 49.0667 106.994 48.1797 106.994C47.2115 107.075 46.4052 106.348 46.3245 105.377V105.296ZM25.596 88.4808C29.145 88.4808 29.8706 87.5918 29.8706 82.0946V79.346C29.8706 73.9297 29.145 73.0401 25.596 73.0401V71.9083L32.855 70.5337C33.2581 71.8274 33.581 73.121 33.742 74.4142C34.7905 72.232 37.2103 70.5337 39.3879 70.5337C42.3723 70.5337 43.663 72.5551 43.663 73.9292C43.663 75.1419 43.1786 76.5164 41.4848 76.5164C40.4364 76.5164 39.6301 75.6269 39.6301 74.576C39.7108 73.6869 39.0655 72.8783 38.1785 72.7974H37.8556C36.565 72.7974 33.6618 74.8187 33.6618 79.1841V82.1755C33.6618 87.5913 34.3071 88.5618 37.9363 88.5618V89.6936H25.5153V88.4808H25.596ZM16.4819 84.1159V77.0823C15.5141 74.4951 13.4172 72.7979 10.9974 72.7979C6.8036 72.7979 4.78741 76.1928 4.78741 80.5587C4.78741 84.9241 6.72287 88.3999 10.9974 88.3999C13.498 88.4004 15.5141 86.6218 16.4819 84.1159ZM0.431641 80.5587C0.431641 75.061 4.70669 70.6147 9.86825 70.6147C12.4495 70.6147 14.8693 71.8274 16.4819 73.8487V64.9561C16.4819 59.5393 15.8371 58.5693 12.2073 58.5693V57.4375L20.3538 56.0635V81.69C20.3538 87.1063 21.0794 88.0768 24.6284 88.0768V89.2086L17.4496 90.5826C17.0465 89.5322 16.8048 88.4004 16.5626 87.2681C14.9496 89.3699 12.5298 90.5826 9.86825 90.5826C4.70669 90.5826 0.431641 86.0559 0.431641 80.5587Z" fill="#FFDD30"/>
</g>
<path fill-rule="evenodd" clip-rule="evenodd" d="M134.004 70.7044H133.516V72.0562H134.004C134.411 72.0562 134.656 71.7183 134.656 71.38C134.656 71.0422 134.33 70.7044 134.004 70.7044ZM134.819 73.8308L133.76 72.3945H133.516V72.8169C133.516 73.5776 133.597 73.7468 134.086 73.7468V73.9154H132.375V73.8308C132.864 73.8308 133.027 73.6622 133.027 72.9015V71.6338C133.027 70.8736 132.946 70.7044 132.375 70.7044V70.5352H134.005C134.738 70.5352 135.146 70.9581 135.146 71.5492C135.146 72.0562 134.738 72.4791 134.249 72.4791L134.738 73.0706C134.982 73.4084 135.39 73.7468 135.797 73.8308C136.612 72.7323 136.449 71.1268 135.39 70.2815C134.33 69.4367 132.782 69.6053 131.967 70.7044C131.153 71.8029 131.316 73.4084 132.375 74.2537C132.782 74.5916 133.353 74.8453 133.923 74.8453C134.575 74.8453 135.227 74.5916 135.716 74.0846L134.819 73.8308ZM136.531 72.1407C136.531 73.6622 135.309 74.9299 133.842 74.9299C132.375 74.9299 131.153 73.6622 131.153 72.1407C131.153 70.6198 132.375 69.3521 133.842 69.3521C135.39 69.3521 136.531 70.6198 136.531 72.1407ZM111.271 89.887C114.857 89.887 115.59 88.9581 115.59 83.2112V80.338C115.59 74.6761 114.857 73.7463 111.271 73.7463V72.5631L118.523 71.1268C118.93 72.4786 119.256 73.8308 119.42 75.1831C120.479 72.9015 123.005 71.1268 125.204 71.1268C128.219 71.1268 129.523 73.2393 129.523 74.6761C129.523 75.9438 129.034 77.3802 127.323 77.3802C126.264 77.3802 125.368 76.4503 125.368 75.3518C125.449 74.4224 124.797 73.5771 123.901 73.4925H123.575C122.271 73.4925 119.338 75.6055 119.338 80.1688V83.2958C119.338 88.9576 119.99 89.9716 123.656 89.9716V91.1547H111.109L111.271 89.887ZM103.042 86.5919V80.7604C97.8266 82.0281 95.4635 83.8873 95.4635 86.4227C95.382 87.9437 96.4412 89.2114 97.8266 89.296H97.9897C99.2121 89.296 100.516 88.8736 103.042 86.5919ZM91.3083 87.0989C91.3083 82.2818 96.7674 80.1693 102.96 78.9862C102.96 74.7607 102.39 72.986 99.2931 72.986C98.0713 72.986 96.1971 73.9154 96.1971 75.6901C96.2786 76.7891 95.4636 77.7185 94.4044 77.8031C93.3452 77.8872 92.4491 77.0424 92.3675 75.9438V75.6901C92.3675 72.986 95.7898 71.1268 99.3752 71.1268C104.671 71.1268 106.871 73.493 106.871 78.9016V87.5213C106.871 88.9576 107.278 89.7183 108.175 89.7183C108.745 89.6338 109.316 89.296 109.723 88.8736L110.457 89.9716C109.56 91.0706 108.257 91.6617 106.871 91.7463C104.997 91.9154 103.286 90.3945 103.123 88.4506C100.434 90.986 98.4786 91.8308 96.2786 91.8308C93.5898 91.8308 91.3083 90.0562 91.3083 87.0989ZM85.4413 81.6057C85.4413 77.0424 83.486 73.493 79.1672 73.493C76.6415 73.493 74.6041 75.2677 73.6265 77.9718V85.2396C74.6041 87.9437 76.6415 89.8029 79.1672 89.8029C83.486 89.8029 85.4413 86.169 85.4413 81.6057ZM69.7969 65.2958C69.7969 59.6339 69.0634 58.6195 65.4785 58.6195V57.4364L73.708 56V74.507C75.3376 72.3945 77.7822 71.1268 80.3895 71.1268C85.6045 71.1268 89.9229 75.7747 89.9229 81.5211C89.9229 87.2675 85.6045 92 80.3895 92C77.6191 92 74.9303 90.5637 73.3823 88.1974L70.9377 92H69.7969V65.2958Z" fill="#C6C8C8"/>
</svg>
