<svg width="17" height="13" viewBox="0 0 17 13" fill="none" xmlns="http://www.w3.org/2000/svg">
<path d="M12.4584 9.67809L12.4584 9.67811L12.462 9.67589C14.1735 8.6227 15.89 7.18296 15.89 4.75006C15.89 1.93693 13.6036 0.488967 11.5173 0.500064L11.5167 0.500069C10.6613 0.505734 9.88251 0.754855 9.22553 1.28985C8.81375 1.62516 8.46366 2.0614 8.17317 2.59388C7.43953 1.40968 6.27479 0.532096 4.85536 0.550064C2.79079 0.562079 0.5 2.03072 0.5 4.84005C0.5 7.28647 2.23111 8.70582 3.95275 9.7388L3.95273 9.73884L3.95874 9.74234C4.75379 10.2045 5.73973 10.802 6.53509 11.2859C6.65268 11.3575 6.76618 11.4266 6.87426 11.4924C7.13069 11.6486 7.35664 11.7862 7.53436 11.8937C7.6605 11.97 7.76452 12.0324 7.83893 12.0761C7.87561 12.0977 7.90831 12.1166 7.93403 12.1308C7.94615 12.1375 7.96196 12.1461 7.97808 12.1541C7.98539 12.1577 8.00004 12.1648 8.01807 12.1721C8.0268 12.1757 8.04348 12.1822 8.06481 12.1886L8.06579 12.1889C8.07239 12.1909 8.09087 12.1965 8.11746 12.2014C8.17029 12.2114 8.21249 12.2107 8.2345 12.2097C8.27493 12.2079 8.30702 12.2015 8.32514 12.1974C8.36138 12.1891 8.38966 12.1785 8.40258 12.1735C8.43101 12.1624 8.45595 12.1502 8.47085 12.1426C8.50372 12.1261 8.54183 12.1048 8.57999 12.0828C8.6585 12.0376 8.76554 11.9731 8.89237 11.8953C9.14719 11.739 9.49764 11.5194 9.89334 11.271C9.9509 11.2349 10.0095 11.1981 10.0688 11.1608C10.8286 10.6838 11.7254 10.1207 12.4584 9.67809Z" stroke="#C9C9C9"/>
</svg>
