<svg width="20" height="38" viewBox="0 0 20 38" fill="none" xmlns="http://www.w3.org/2000/svg">
<path fill-rule="evenodd" clip-rule="evenodd" d="M12.9044 1.85156H7.03959C6.71587 1.85156 6.45312 2.12807 6.45312 2.46873C6.45312 2.80938 6.71587 3.08589 7.03959 3.08589H12.9044C13.2281 3.08589 13.4909 2.80938 13.4909 2.46873C13.4909 2.12807 13.2281 1.85156 12.9044 1.85156Z" fill="#AFAFAF"/>
<path fill-rule="evenodd" clip-rule="evenodd" d="M17.0089 1.85156H16.4224C16.0987 1.85156 15.8359 2.12807 15.8359 2.46873C15.8359 2.80938 16.0987 3.08589 16.4224 3.08589H17.0089C17.3326 3.08589 17.5953 2.80938 17.5953 2.46873C17.5953 2.12807 17.3326 1.85156 17.0089 1.85156Z" fill="#AFAFAF"/>
<path fill-rule="evenodd" clip-rule="evenodd" d="M11.1439 33.4775C11.1439 33.7354 10.9445 33.9453 10.6993 33.9453H9.24308C8.99737 33.9453 8.79792 33.7354 8.79792 33.4775V33.1793C8.79792 32.9208 8.9973 32.7108 9.24308 32.7108H10.6987C10.9445 32.7108 11.1439 32.9207 11.1439 33.1793V33.4775ZM10.6992 31.4766H9.24308C8.35105 31.4766 7.625 32.2405 7.625 33.1793V33.4775C7.625 34.4162 8.35105 35.1797 9.24246 35.1797H10.6987C11.5908 35.1797 12.3168 34.4162 12.3168 33.4775V33.1793C12.3168 32.2405 11.5908 31.4766 10.6992 31.4766Z" fill="#AFAFAF"/>
<mask id="mask0" mask-type="alpha" maskUnits="userSpaceOnUse" x="0" y="0" width="20" height="38">
<path fill-rule="evenodd" clip-rule="evenodd" d="M0 0H19.9404V37.0312H0V0Z" fill="white"/>
</mask>
<g mask="url(#mask0)">
<path fill-rule="evenodd" clip-rule="evenodd" d="M18.7675 34.8001C18.7675 35.3494 18.3429 35.7968 17.8209 35.7968H2.12014C1.59759 35.7968 1.17299 35.3494 1.17299 34.8007V2.23113C1.17299 1.68181 1.59759 1.2344 2.12014 1.2344H17.8203C18.3428 1.2344 18.7674 1.68188 18.7674 2.23113V34.8001H18.7675ZM17.8209 0H2.12014C0.951271 0 0 1.001 0 2.23113V34.8001C0 36.0302 0.951271 37.0312 2.12014 37.0312H17.8203C18.9891 37.0312 19.9404 36.0302 19.9404 34.8008V2.23113C19.9405 1.001 18.9892 0 17.8209 0Z" fill="#AFAFAF"/>
</g>
<mask id="mask1" mask-type="alpha" maskUnits="userSpaceOnUse" x="0" y="0" width="20" height="38">
<path fill-rule="evenodd" clip-rule="evenodd" d="M0 37.0312H19.9405V0H0V37.0312Z" fill="white"/>
</mask>
<g mask="url(#mask1)">
<path fill-rule="evenodd" clip-rule="evenodd" d="M1.17292 29.625H18.7674V4.93752H1.17292V29.625ZM19.3539 3.70312H0.58646C0.262749 3.70312 0 3.97963 0 4.32029V30.2422C0 30.5828 0.262749 30.8593 0.58646 30.8593H19.354C19.6777 30.8593 19.9404 30.5828 19.9404 30.2422V4.32029C19.9404 3.97963 19.6777 3.70312 19.3539 3.70312Z" fill="#AFAFAF"/>
</g>
</svg>
