<svg width="24" height="21" viewBox="0 0 24 21" fill="none" xmlns="http://www.w3.org/2000/svg">
<path d="M23.4999 0H0.500015C0.224015 0 0 0.448017 0 1C0 1.55198 0.224015 2 0.500015 2H23.5C23.776 2 24 1.55198 24 1C24 0.448017 23.7759 0 23.4999 0Z" fill="#42413D"/>
<path d="M23.4999 10H0.500015C0.224015 10 0 10.448 0 11C0 11.552 0.224015 12 0.500015 12H23.5C23.776 12 24 11.552 24 11C24 10.448 23.7759 10 23.4999 10Z" fill="#42413D"/>
<path d="M23.4999 19H0.500015C0.224015 19 0 19.4479 0 20C0 20.552 0.224015 21 0.500015 21H23.5C23.776 21 24 20.552 24 20C24 19.4479 23.7759 19 23.4999 19Z" fill="#42413D"/>
</svg>
