<svg width="258" height="176" viewBox="0 0 258 176" fill="none" xmlns="http://www.w3.org/2000/svg">
<g filter="url(#filter0_d)">
<g filter="url(#filter1_d)">
<path d="M15 20.3322C15 15.5303 18.8762 11.6377 23.6578 11.6377H233.851C238.632 11.6377 242.509 15.5303 242.509 20.3322V147.368C242.509 152.17 238.632 156.063 233.851 156.063H23.6578C18.8762 156.063 15 152.17 15 147.368V20.3322Z" fill="#FFDD30"/>
</g>
<path fill-rule="evenodd" clip-rule="evenodd" d="M242.51 59.1748V147.369C242.51 152.171 238.634 156.063 233.852 156.063H98.2129C123.862 119.986 166.194 76.1366 242.51 59.1748Z" fill="url(#paint0_linear)"/>
<path fill-rule="evenodd" clip-rule="evenodd" d="M201.865 11.6377H233.851C238.632 11.6377 242.509 15.5303 242.509 20.3322V25.2041C162.765 40.2463 115.27 99.5009 85.321 156.062H23.6578C20.9201 156.062 18.4791 154.786 16.8926 152.794L16.9076 152.768C17.493 151.738 18.0949 150.666 18.7146 149.553L18.8167 149.37C19.407 148.309 20.0134 147.213 20.637 146.083C20.9301 145.552 21.2271 145.013 21.5281 144.468C42.4764 106.48 82.4679 33.9598 181.302 14.7441C184.596 14.1036 187.956 13.5223 191.383 13.0035C194.81 12.4846 198.303 12.0283 201.865 11.6377Z" fill="url(#paint1_linear)"/>
<path d="M235.295 126.357C235.295 134.76 228.511 141.572 220.143 141.572C211.776 141.572 204.992 134.76 204.992 126.357C204.992 117.954 211.776 111.142 220.143 111.142C228.511 111.142 235.295 117.954 235.295 126.357Z" fill="#F79E1B"/>
<path d="M217.017 126.357C217.017 134.76 210.234 141.572 201.866 141.572C193.498 141.572 186.715 134.76 186.715 126.357C186.715 117.954 193.498 111.142 201.866 111.142C210.234 111.142 217.017 117.954 217.017 126.357Z" fill="#EB001B"/>
<path fill-rule="evenodd" clip-rule="evenodd" d="M211.005 138.314C214.657 135.536 217.017 131.133 217.017 126.177C217.017 121.221 214.657 116.818 211.005 114.04C207.352 116.818 204.992 121.221 204.992 126.177C204.992 131.133 207.352 135.536 211.005 138.314Z" fill="#FF5F00"/>
<path d="M28.9453 64.771C28.9453 62.3701 30.8834 60.4238 33.2742 60.4238H55.2967C57.6875 60.4238 59.6257 62.3701 59.6257 64.771V78.7788C59.6257 81.1797 57.6875 83.126 55.2967 83.126H33.2742C30.8834 83.126 28.9453 81.1797 28.9453 78.7788V64.771Z" fill="#F9F9F9"/>
<path d="M28.4668 64.2882C28.4668 61.8872 30.4049 59.9409 32.7957 59.9409H55.8833C58.2741 59.9409 60.2122 61.8872 60.2122 64.2882V79.262C60.2122 81.6629 58.2741 83.6092 55.8833 83.6092H32.7957C30.4049 83.6092 28.4668 81.6629 28.4668 79.262V64.2882Z" fill="white"/>
<path fill-rule="evenodd" clip-rule="evenodd" d="M38.6535 62.5279H32.9675C31.9049 62.5279 31.0435 63.393 31.0435 64.46V66.5215C31.0435 67.5886 31.9049 68.4536 32.9675 68.4536H38.6535C39.716 68.4536 40.5774 67.5886 40.5774 66.5215V64.46C40.5774 63.393 39.716 62.5279 38.6535 62.5279ZM32.9675 62.0449C31.6392 62.0449 30.5625 63.1262 30.5625 64.46V66.5215C30.5625 67.8554 31.6392 68.9366 32.9675 68.9366H38.6535C39.9817 68.9366 41.0584 67.8554 41.0584 66.5215V64.46C41.0584 63.1262 39.9817 62.0449 38.6535 62.0449H32.9675Z" fill="url(#paint2_linear)"/>
<path fill-rule="evenodd" clip-rule="evenodd" d="M38.6535 75.0963H32.9675C31.9049 75.0963 31.0435 75.9613 31.0435 77.0284V79.0898C31.0435 80.1569 31.9049 81.0219 32.9675 81.0219H38.6535C39.716 81.0219 40.5774 80.1569 40.5774 79.0898V77.0284C40.5774 75.9613 39.716 75.0963 38.6535 75.0963ZM32.9675 74.6133C31.6392 74.6133 30.5625 75.6946 30.5625 77.0284V79.0898C30.5625 80.4237 31.6392 81.5049 32.9675 81.5049H38.6535C39.9817 81.5049 41.0584 80.4237 41.0584 79.0898V77.0284C41.0584 75.6946 39.9817 74.6133 38.6535 74.6133H32.9675Z" fill="url(#paint3_linear)"/>
<path fill-rule="evenodd" clip-rule="evenodd" d="M55.6105 62.5279H49.9245C48.8619 62.5279 48.0005 63.393 48.0005 64.46V66.5215C48.0005 67.5886 48.8619 68.4536 49.9245 68.4536H55.6105C56.6731 68.4536 57.5345 67.5886 57.5345 66.5215V64.46C57.5345 63.393 56.6731 62.5279 55.6105 62.5279ZM49.9245 62.0449C48.5963 62.0449 47.5195 63.1262 47.5195 64.46V66.5215C47.5195 67.8554 48.5963 68.9366 49.9245 68.9366H55.6105C56.9387 68.9366 58.0154 67.8554 58.0154 66.5215V64.46C58.0154 63.1262 56.9387 62.0449 55.6105 62.0449H49.9245Z" fill="#D1D1D1"/>
<path fill-rule="evenodd" clip-rule="evenodd" d="M55.6105 75.0963H49.9245C48.8619 75.0963 48.0005 75.9613 48.0005 77.0284V79.0898C48.0005 80.1569 48.8619 81.0219 49.9245 81.0219H55.6105C56.6731 81.0219 57.5345 80.1569 57.5345 79.0898V77.0284C57.5345 75.9613 56.6731 75.0963 55.6105 75.0963ZM49.9245 74.6133C48.5963 74.6133 47.5195 75.6946 47.5195 77.0284V79.0898C47.5195 80.4237 48.5963 81.5049 49.9245 81.5049H55.6105C56.9387 81.5049 58.0154 80.4237 58.0154 79.0898V77.0284C58.0154 75.6946 56.9387 74.6133 55.6105 74.6133H49.9245Z" fill="#D1D1D1"/>
<path fill-rule="evenodd" clip-rule="evenodd" d="M55.6105 69.0148H49.9245C48.8619 69.0148 48.0005 69.8798 48.0005 70.9469V72.603C48.0005 73.6701 48.8619 74.5351 49.9245 74.5351H55.6105C56.6731 74.5351 57.5345 73.6701 57.5345 72.603V70.9469C57.5345 69.8798 56.6731 69.0148 55.6105 69.0148ZM49.9245 68.5317C48.5963 68.5317 47.5195 69.613 47.5195 70.9469V72.603C47.5195 73.9368 48.5963 75.0181 49.9245 75.0181H55.6105C56.9387 75.0181 58.0154 73.9368 58.0154 72.603V70.9469C58.0154 69.613 56.9387 68.5317 55.6105 68.5317H49.9245Z" fill="#D1D1D1"/>
<path fill-rule="evenodd" clip-rule="evenodd" d="M55.6105 62.5279H49.9245C48.8619 62.5279 48.0005 63.393 48.0005 64.46V66.5215C48.0005 67.5886 48.8619 68.4536 49.9245 68.4536H55.6105C56.6731 68.4536 57.5345 67.5886 57.5345 66.5215V64.46C57.5345 63.393 56.6731 62.5279 55.6105 62.5279ZM49.9245 62.0449C48.5963 62.0449 47.5195 63.1262 47.5195 64.46V66.5215C47.5195 67.8554 48.5963 68.9366 49.9245 68.9366H55.6105C56.9387 68.9366 58.0154 67.8554 58.0154 66.5215V64.46C58.0154 63.1262 56.9387 62.0449 55.6105 62.0449H49.9245Z" fill="url(#paint4_linear)"/>
<path fill-rule="evenodd" clip-rule="evenodd" d="M55.6105 75.0963H49.9245C48.8619 75.0963 48.0005 75.9613 48.0005 77.0284V79.0898C48.0005 80.1569 48.8619 81.0219 49.9245 81.0219H55.6105C56.6731 81.0219 57.5345 80.1569 57.5345 79.0898V77.0284C57.5345 75.9613 56.6731 75.0963 55.6105 75.0963ZM49.9245 74.6133C48.5963 74.6133 47.5195 75.6946 47.5195 77.0284V79.0898C47.5195 80.4237 48.5963 81.5049 49.9245 81.5049H55.6105C56.9387 81.5049 58.0154 80.4237 58.0154 79.0898V77.0284C58.0154 75.6946 56.9387 74.6133 55.6105 74.6133H49.9245Z" fill="url(#paint5_linear)"/>
<path fill-rule="evenodd" clip-rule="evenodd" d="M55.6105 69.0148H49.9245C48.8619 69.0148 48.0005 69.8798 48.0005 70.9469V72.603C48.0005 73.6701 48.8619 74.5351 49.9245 74.5351H55.6105C56.6731 74.5351 57.5345 73.6701 57.5345 72.603V70.9469C57.5345 69.8798 56.6731 69.0148 55.6105 69.0148ZM49.9245 68.5317C48.5963 68.5317 47.5195 69.613 47.5195 70.9469V72.603C47.5195 73.9368 48.5963 75.0181 49.9245 75.0181H55.6105C56.9387 75.0181 58.0154 73.9368 58.0154 72.603V70.9469C58.0154 69.613 56.9387 68.5317 55.6105 68.5317H49.9245Z" fill="url(#paint6_linear)"/>
<path fill-rule="evenodd" clip-rule="evenodd" d="M38.6535 69.0148H32.9675C31.9049 69.0148 31.0435 69.8798 31.0435 70.9469V72.603C31.0435 73.6701 31.9049 74.5351 32.9675 74.5351H38.6535C39.716 74.5351 40.5774 73.6701 40.5774 72.603V70.9469C40.5774 69.8798 39.716 69.0148 38.6535 69.0148ZM32.9675 68.5317C31.6392 68.5317 30.5625 69.613 30.5625 70.9469V72.603C30.5625 73.9368 31.6392 75.0181 32.9675 75.0181H38.6535C39.9817 75.0181 41.0584 73.9368 41.0584 72.603V70.9469C41.0584 69.613 39.9817 68.5317 38.6535 68.5317H32.9675Z" fill="#979797"/>
<path fill-rule="evenodd" clip-rule="evenodd" d="M47.7201 64.4351H40.8574V63.7104H47.7201V64.4351Z" fill="url(#paint7_linear)"/>
<path fill-rule="evenodd" clip-rule="evenodd" d="M47.7201 79.8403H40.8574V79.1157H47.7201V79.8403Z" fill="#D1D1D1"/>
<path fill-rule="evenodd" clip-rule="evenodd" d="M59.5701 64.073C59.3504 62.7062 58.4961 61.5527 57.3205 60.9272C47.2577 63.4976 37.8139 66.5435 28.9453 69.9773V78.779C28.9453 81.1799 30.8834 83.1262 33.2742 83.1262H49.0242C53.2437 73.95 56.1549 68.5437 59.5701 64.073Z" fill="url(#paint8_linear)"/>
<path opacity="0.5" fill-rule="evenodd" clip-rule="evenodd" d="M59.6293 74.4316V78.7787C59.6293 81.1796 57.6911 83.1259 55.3003 83.1259H51.0781C52.8956 79.4066 55.0709 77.0478 59.6293 74.4316Z" fill="url(#paint9_linear)"/>
<path fill-rule="evenodd" clip-rule="evenodd" d="M49.1469 60.4238V70.0843H28.9453V64.771C28.9453 62.3701 30.8834 60.4238 33.2742 60.4238H49.1469Z" fill="url(#paint10_linear)"/>
<path fill-rule="evenodd" clip-rule="evenodd" d="M59.5701 64.073C59.3504 62.7062 58.4961 61.5527 57.3205 60.9272C47.2577 63.4976 37.8139 66.5435 28.9453 69.9773V78.779C28.9453 81.1799 30.8834 83.1262 33.2742 83.1262H49.0242C53.2437 73.95 56.1549 68.5437 59.5701 64.073Z" fill="url(#paint11_linear)"/>
<path opacity="0.5" fill-rule="evenodd" clip-rule="evenodd" d="M201.865 11.6377H233.851C238.632 11.6377 242.509 15.5303 242.509 20.3322V25.2041C162.765 40.2463 115.27 99.5009 85.321 156.062H23.6578C20.9201 156.062 18.4791 154.786 16.8926 152.794L16.9076 152.768C17.493 151.738 18.0949 150.666 18.7146 149.553L18.8167 149.37C19.407 148.309 20.0134 147.213 20.637 146.083C20.9301 145.552 21.2271 145.013 21.5281 144.468C42.4764 106.48 82.4679 33.9598 181.302 14.7441C184.596 14.1036 187.956 13.5223 191.383 13.0035C194.81 12.4846 198.303 12.0283 201.865 11.6377ZM143.916 156.062L242.509 63.281V147.368C242.509 152.17 238.632 156.062 233.851 156.062H143.916Z" fill="url(#paint12_linear)"/>
</g>
<path fill-rule="evenodd" clip-rule="evenodd" d="M23.6578 11.6377C18.8762 11.6377 15 15.5303 15 20.3322V129.496H175.17V11.6377H23.6578Z" fill="url(#paint13_linear)"/>
<defs>
<filter id="filter0_d" x="0" y="0.637695" width="257.51" height="174.426" filterUnits="userSpaceOnUse" color-interpolation-filters="sRGB">
<feFlood flood-opacity="0" result="BackgroundImageFix"/>
<feColorMatrix in="SourceAlpha" type="matrix" values="0 0 0 0 0 0 0 0 0 0 0 0 0 0 0 0 0 0 127 0"/>
<feOffset dy="4"/>
<feGaussianBlur stdDeviation="7.5"/>
<feColorMatrix type="matrix" values="0 0 0 0 0 0 0 0 0 0 0 0 0 0 0 0 0 0 0.02 0"/>
<feBlend mode="normal" in2="BackgroundImageFix" result="effect1_dropShadow"/>
<feBlend mode="normal" in="SourceGraphic" in2="effect1_dropShadow" result="shape"/>
</filter>
<filter id="filter1_d" x="0" y="0.637695" width="257.509" height="174.425" filterUnits="userSpaceOnUse" color-interpolation-filters="sRGB">
<feFlood flood-opacity="0" result="BackgroundImageFix"/>
<feColorMatrix in="SourceAlpha" type="matrix" values="0 0 0 0 0 0 0 0 0 0 0 0 0 0 0 0 0 0 127 0"/>
<feOffset dy="4"/>
<feGaussianBlur stdDeviation="7.5"/>
<feColorMatrix type="matrix" values="0 0 0 0 0 0 0 0 0 0 0 0 0 0 0 0 0 0 0.04 0"/>
<feBlend mode="normal" in2="BackgroundImageFix" result="effect1_dropShadow"/>
<feBlend mode="normal" in="SourceGraphic" in2="effect1_dropShadow" result="shape"/>
</filter>
<linearGradient id="paint0_linear" x1="31.0938" y1="40.3785" x2="297.659" y2="193.294" gradientUnits="userSpaceOnUse">
<stop stop-color="white"/>
<stop offset="1" stop-color="white" stop-opacity="0"/>
</linearGradient>
<linearGradient id="paint1_linear" x1="-21.5552" y1="-1.64552" x2="231.422" y2="130.068" gradientUnits="userSpaceOnUse">
<stop stop-color="white"/>
<stop offset="1" stop-color="white" stop-opacity="0"/>
</linearGradient>
<linearGradient id="paint2_linear" x1="31.1121" y1="62.8386" x2="41.2338" y2="68.5981" gradientUnits="userSpaceOnUse">
<stop stop-color="#979797"/>
<stop offset="1" stop-color="#D8D8D8"/>
</linearGradient>
<linearGradient id="paint3_linear" x1="30.6311" y1="77.3303" x2="40.9731" y2="78.2883" gradientUnits="userSpaceOnUse">
<stop stop-color="#979797"/>
<stop offset="1" stop-color="#D8D8D8"/>
</linearGradient>
<linearGradient id="paint4_linear" x1="52.7675" y1="62.0449" x2="52.7675" y2="68.9366" gradientUnits="userSpaceOnUse">
<stop stop-color="#979797"/>
<stop offset="1" stop-color="#979797" stop-opacity="0"/>
</linearGradient>
<linearGradient id="paint5_linear" x1="52.7675" y1="74.6133" x2="52.7675" y2="81.5049" gradientUnits="userSpaceOnUse">
<stop stop-color="#979797"/>
<stop offset="1" stop-color="#979797" stop-opacity="0"/>
</linearGradient>
<linearGradient id="paint6_linear" x1="52.7675" y1="68.5317" x2="52.7675" y2="75.0181" gradientUnits="userSpaceOnUse">
<stop stop-color="#979797"/>
<stop offset="1" stop-color="#979797" stop-opacity="0"/>
</linearGradient>
<linearGradient id="paint7_linear" x1="47.2263" y1="64.0468" x2="42.8974" y2="64.0468" gradientUnits="userSpaceOnUse">
<stop stop-color="#979797"/>
<stop offset="1" stop-color="#D8D8D8"/>
</linearGradient>
<linearGradient id="paint8_linear" x1="-53.5438" y1="72.0166" x2="123.627" y2="186.236" gradientUnits="userSpaceOnUse">
<stop stop-color="#C6C8C8"/>
<stop offset="1" stop-color="white" stop-opacity="0"/>
</linearGradient>
<linearGradient id="paint9_linear" x1="40.7332" y1="76.3601" x2="62.1171" y2="88.6873" gradientUnits="userSpaceOnUse">
<stop stop-color="#C4C4C4"/>
<stop offset="1" stop-color="#C4C4C4" stop-opacity="0"/>
</linearGradient>
<linearGradient id="paint10_linear" x1="26.2999" y1="56.3181" x2="34.9998" y2="66.4254" gradientUnits="userSpaceOnUse">
<stop stop-color="#D8D8D8"/>
<stop offset="1" stop-color="#D8D8D8" stop-opacity="0"/>
</linearGradient>
<linearGradient id="paint11_linear" x1="35.4387" y1="52.2125" x2="54.5198" y2="79.7395" gradientUnits="userSpaceOnUse">
<stop stop-color="#979797"/>
<stop offset="1" stop-color="white" stop-opacity="0"/>
</linearGradient>
<linearGradient id="paint12_linear" x1="-21.5552" y1="-1.64552" x2="231.422" y2="130.068" gradientUnits="userSpaceOnUse">
<stop stop-color="white"/>
<stop offset="1" stop-color="white" stop-opacity="0"/>
</linearGradient>
<linearGradient id="paint13_linear" x1="-53.5412" y1="-30.144" x2="67.7077" y2="52.2886" gradientUnits="userSpaceOnUse">
<stop stop-color="white"/>
<stop offset="1" stop-color="white" stop-opacity="0"/>
</linearGradient>
</defs>
</svg>
