<svg width="17" height="22" viewBox="0 0 17 22" fill="none" xmlns="http://www.w3.org/2000/svg">
<mask id="mask0" mask-type="alpha" maskUnits="userSpaceOnUse" x="0" y="0" width="17" height="22">
<path fill-rule="evenodd" clip-rule="evenodd" d="M0.714844 0.944336H16.2366V21.3169H0.714844V0.944336Z" fill="white"/>
</mask>
<g mask="url(#mask0)">
<path fill-rule="evenodd" clip-rule="evenodd" d="M8.73544 0.944336C3.49942 0.944336 0.714844 4.52243 0.714844 8.42395C0.714844 10.2334 1.66294 12.4897 3.18061 13.2054C3.41106 13.3161 3.53644 13.269 3.58779 13.0411C3.63316 12.8679 3.83257 12.0338 3.92929 11.6404C3.95914 11.5144 3.94362 11.4048 3.84809 11.2864C3.34419 10.665 2.94418 9.53303 2.94418 8.47106C2.94418 5.74993 4.97291 3.10774 8.42498 3.10774C11.4102 3.10774 13.4986 5.17565 13.4986 8.13363C13.4986 11.4762 11.84 13.7885 9.68469 13.7885C8.49185 13.7885 7.60346 12.7902 7.88526 11.5551C8.22557 10.0844 8.89305 8.5029 8.89305 7.4422C8.89305 6.49102 8.38916 5.70409 7.35986 5.70409C6.14549 5.70409 5.16038 6.98635 5.16038 8.70791C5.16038 9.80171 5.52338 10.5402 5.52338 10.5402C5.52338 10.5402 4.32214 15.7151 4.09885 16.6816C3.72152 18.3178 4.15019 20.9676 4.18721 21.1956C4.2099 21.3216 4.34244 21.3611 4.41647 21.258C4.53469 21.0924 5.98668 18.8832 6.39386 17.2864C6.54192 16.7045 7.14971 14.345 7.14971 14.345C7.54972 15.1154 8.70439 15.761 9.93429 15.761C13.5929 15.761 16.2366 12.3318 16.2366 8.07633C16.2235 3.99654 12.9493 0.944336 8.73544 0.944336Z" fill="#42413D"/>
</g>
</svg>
