<svg width="20" height="18" viewBox="0 0 20 18" fill="none" xmlns="http://www.w3.org/2000/svg">
<path fill-rule="evenodd" clip-rule="evenodd" d="M19.8888 2.83716C19.1758 3.16827 18.416 3.38774 17.6239 3.4943C18.4388 2.97924 19.0607 2.16987 19.3531 1.19431C18.5934 1.67384 17.7545 2.01256 16.8605 2.20158C16.1391 1.3884 15.1109 0.884766 13.9892 0.884766C11.813 0.884766 10.0609 2.7547 10.0609 5.04708C10.0609 5.37692 10.0873 5.69407 10.152 5.996C6.88406 5.82727 3.99239 4.1692 2.04983 1.6434C1.71069 2.26628 1.51176 2.97924 1.51176 3.74675C1.51176 5.18789 2.21281 6.46539 3.25779 7.20499C2.62625 7.1923 2.00669 6.9982 1.4818 6.69247V6.73814C1.4818 8.7603 2.84435 10.4399 4.63112 10.8269C4.31116 10.9195 3.96243 10.9639 3.60052 10.9639C3.34887 10.9639 3.09481 10.9487 2.85633 10.8928C3.36564 12.5408 4.81088 13.7523 6.52934 13.7916C5.19196 14.8991 3.49387 15.5664 1.65557 15.5664C1.3332 15.5664 1.02402 15.5512 0.714844 15.5093C2.45608 16.698 4.51967 17.3767 6.74505 17.3767C13.9784 17.3767 17.9331 11.0337 17.9331 5.53549C17.9331 5.35155 17.9271 5.17394 17.9187 4.9976C18.6988 4.4115 19.3543 3.67952 19.8888 2.83716Z" fill="#42413D"/>
</svg>
