<svg width="20" height="15" viewBox="0 0 20 15" fill="none" xmlns="http://www.w3.org/2000/svg">
<mask id="mask0" mask-type="alpha" maskUnits="userSpaceOnUse" x="0" y="0" width="21" height="15">
<path fill-rule="evenodd" clip-rule="evenodd" d="M0.0078125 0.960938H20.001V14.9033H0.0078125V0.960938Z" fill="white"/>
</mask>
<g mask="url(#mask0)">
<path fill-rule="evenodd" clip-rule="evenodd" d="M19.584 3.13389C19.354 2.27661 18.6764 1.60154 17.8158 1.37243C16.2562 0.956055 10.002 0.956055 10.002 0.956055C10.002 0.956055 3.74775 0.956055 2.18809 1.37243C1.32763 1.60154 0.649908 2.27661 0.419908 3.13389C0.00195312 4.68761 0.00195312 7.92944 0.00195312 7.92944C0.00195312 7.92944 0.00195312 11.1712 0.419908 12.7251C0.649908 13.5823 1.32763 14.2573 2.18809 14.4866C3.74775 14.9028 10.002 14.9028 10.002 14.9028C10.002 14.9028 16.2562 14.9028 17.8158 14.4866C18.6764 14.2573 19.354 13.5823 19.584 12.7251C20.002 11.1712 20.002 7.92944 20.002 7.92944C20.002 7.92944 20.002 4.68761 19.584 3.13389Z" fill="#42413D"/>
</g>
<path fill-rule="evenodd" clip-rule="evenodd" d="M8 10.999L13.3334 7.98644L8 4.97363V10.999Z" fill="#FFFFFE"/>
</svg>
